<svg xmlns="http://www.w3.org/2000/svg" xmlns:xlink="http://www.w3.org/1999/xlink" width="956" zoomAndPan="magnify" viewBox="0 0 717 164.249993" height="219" preserveAspectRatio="xMidYMid meet" version="1.0"><defs><g/><clipPath id="eb10092f0d"><path d="M 34 93 L 138 93 L 138 163.382812 L 34 163.382812 Z M 34 93 " clip-rule="nonzero"/></clipPath><clipPath id="2f3b58a8e0"><path d="M 1.628906 46 L 111 46 L 111 110 L 1.628906 110 Z M 1.628906 46 " clip-rule="nonzero"/></clipPath><clipPath id="eb8285cdc2"><path d="M 126 6.597656 L 228.59375 6.597656 L 228.59375 125 L 126 125 Z M 126 6.597656 " clip-rule="nonzero"/></clipPath><clipPath id="ec885787cb"><path d="M 77 6.597656 L 228.59375 6.597656 L 228.59375 70 L 77 70 Z M 77 6.597656 " clip-rule="nonzero"/></clipPath></defs><path fill="#ec407a" d="M 112.25 62.480469 L 119.445312 74.109375 L 124.546875 70.96875 L 116.347656 57.722656 C 114.890625 59.320312 113.515625 60.914062 112.25 62.480469 " fill-opacity="1" fill-rule="nonzero"/><path fill="#ec407a" d="M 126.648438 85.742188 C 128.613281 85.308594 130.652344 84.792969 132.738281 84.203125 L 124.546875 70.96875 L 119.445312 74.109375 L 126.648438 85.742188 " fill-opacity="1" fill-rule="nonzero"/><path fill="#ec407a" d="M 18.207031 136.550781 L 18.210938 136.546875 L 116.664062 75.828125 L 113.660156 70.980469 L 18.207031 136.550781 " fill-opacity="1" fill-rule="nonzero"/><path fill="#ec407a" d="M 119.667969 80.679688 L 116.664062 75.828125 L 18.210938 136.546875 Z M 119.667969 80.679688 " fill-opacity="1" fill-rule="nonzero"/><g clip-path="url(#eb10092f0d)"><path fill="#ec407a" d="M 137.011719 93.109375 L 34.757812 163.351562 L 131.820312 109.90625 C 134.621094 104.941406 137.195312 98.089844 137.011719 93.109375 " fill-opacity="1" fill-rule="nonzero"/></g><g clip-path="url(#2f3b58a8e0)"><path fill="#ec407a" d="M 92.90625 47.058594 L 1.65625 109.746094 L 110.300781 49.921875 C 105.921875 47.515625 98.617188 46.761719 92.90625 47.058594 " fill-opacity="1" fill-rule="nonzero"/></g><g clip-path="url(#eb8285cdc2)"><path fill="#ec407a" d="M 144.914062 106.070312 C 147.113281 99.976562 148.601562 92.429688 146.058594 86.136719 C 153.425781 83.382812 160.863281 80.011719 167.566406 76.398438 C 164.851562 85.058594 158.691406 96.230469 144.914062 106.070312 Z M 214.136719 15.714844 C 205.617188 27.976562 186.5 53.75 169.644531 64.167969 C 160.945312 69.542969 150.136719 74.625 139.613281 78.300781 L 132.167969 66.269531 L 126.121094 69.996094 L 136.53125 86.8125 L 137.972656 86.339844 L 138.105469 86.5 C 143.929688 93.535156 136.761719 108.359375 133.503906 113.46875 L 126.28125 124.761719 L 138.152344 118.523438 C 167.660156 103.003906 174.730469 81.316406 176.316406 69.773438 L 176.546875 68.105469 C 199.417969 51.976562 223.570312 14.511719 224.632812 12.855469 L 228.460938 6.882812 L 214.136719 15.714844 " fill-opacity="1" fill-rule="nonzero"/></g><g clip-path="url(#ec885787cb)"><path fill="#ec407a" d="M 120.5625 44.945312 C 116.0625 39.863281 108.640625 37.824219 102.207031 37.066406 C 117.171875 29.144531 129.921875 28.625 138.890625 30.0625 C 132.664062 34.445312 126.316406 39.589844 120.5625 44.945312 Z M 221.265625 7.414062 C 219.304688 7.621094 174.980469 12.488281 150.324219 25.738281 L 148.726562 25.199219 C 137.683594 21.460938 115.109375 18.097656 88.039062 37.554688 L 77.148438 45.382812 L 90.484375 43.964844 C 96.511719 43.328125 112.96875 43.496094 116.6875 51.894531 L 116.773438 52.085938 L 115.703125 53.164062 L 126.121094 69.996094 L 132.167969 66.269531 L 124.699219 54.207031 C 132.695312 46.441406 142.066406 39.042969 150.765625 33.664062 C 167.730469 23.179688 199.644531 17.589844 214.304688 15.476562 C 214.25 15.554688 214.195312 15.636719 214.136719 15.714844 L 228.460938 6.882812 L 228.625 6.628906 L 221.265625 7.414062 " fill-opacity="1" fill-rule="nonzero"/></g><g fill="#ffffff" fill-opacity="1"><g transform="translate(261.388551, 108.644237)"><g><path d="M 7.65625 0 C 8.589844 0 9.003906 -0.308594 9.519531 -1.449219 L 36.632812 -62.398438 L 36.734375 -62.398438 L 52.050781 -28.042969 L 58.773438 -28.042969 L 37.871094 -73.054688 C 37.5625 -73.78125 37.25 -74.296875 36.839844 -74.296875 L 36.527344 -74.296875 C 36.011719 -74.296875 35.699219 -73.78125 35.390625 -73.054688 L 1.964844 -1.449219 C 1.65625 -0.621094 1.964844 0 2.792969 0 Z M 22.765625 -26.078125 L 20.074219 -20.179688 L 55.257812 -20.179688 L 63.742188 -1.449219 C 64.363281 -0.308594 64.671875 0 65.605469 0 L 70.363281 0 C 71.296875 0 71.710938 -0.621094 71.296875 -1.449219 L 59.808594 -26.078125 Z M 22.765625 -26.078125 "/></g></g></g><g fill="#ffffff" fill-opacity="1"><g transform="translate(334.336854, 108.644237)"><g><path d="M 36.320312 -53.808594 C 28.351562 -53.808594 22.039062 -49.980469 18.523438 -45.011719 L 18.523438 -36.21875 C 22.558594 -45.011719 29.492188 -48.011719 35.183594 -48.011719 C 46.773438 -48.011719 53.910156 -38.390625 53.910156 -26.285156 C 53.910156 -15.109375 46.773438 -4.761719 35.183594 -4.761719 C 28.144531 -4.761719 22.144531 -8.691406 18.523438 -16.554688 L 18.523438 -8.070312 C 22.039062 -2.898438 28.351562 1.136719 36.320312 1.136719 C 51.015625 1.136719 60.222656 -11.175781 60.222656 -26.285156 C 60.222656 -41.289062 51.015625 -53.808594 36.320312 -53.808594 Z M 15.210938 21.109375 C 16.246094 21.109375 16.554688 20.695312 16.554688 19.660156 L 16.554688 -48.117188 L 15.730469 -51.429688 C 15.109375 -52.257812 14.382812 -52.671875 13.554688 -52.671875 L 11.484375 -52.671875 C 10.554688 -52.671875 10.140625 -52.359375 10.140625 -51.222656 L 10.140625 19.660156 C 10.140625 20.800781 10.554688 21.109375 11.484375 21.109375 Z M 15.210938 21.109375 "/></g></g></g><g fill="#ffffff" fill-opacity="1"><g transform="translate(399.731644, 108.644237)"><g><path d="M 36.320312 -53.808594 C 28.351562 -53.808594 22.039062 -49.980469 18.523438 -45.011719 L 18.523438 -36.21875 C 22.558594 -45.011719 29.492188 -48.011719 35.183594 -48.011719 C 46.773438 -48.011719 53.910156 -38.390625 53.910156 -26.285156 C 53.910156 -15.109375 46.773438 -4.761719 35.183594 -4.761719 C 28.144531 -4.761719 22.144531 -8.691406 18.523438 -16.554688 L 18.523438 -8.070312 C 22.039062 -2.898438 28.351562 1.136719 36.320312 1.136719 C 51.015625 1.136719 60.222656 -11.175781 60.222656 -26.285156 C 60.222656 -41.289062 51.015625 -53.808594 36.320312 -53.808594 Z M 15.210938 21.109375 C 16.246094 21.109375 16.554688 20.695312 16.554688 19.660156 L 16.554688 -48.117188 L 15.730469 -51.429688 C 15.109375 -52.257812 14.382812 -52.671875 13.554688 -52.671875 L 11.484375 -52.671875 C 10.554688 -52.671875 10.140625 -52.359375 10.140625 -51.222656 L 10.140625 19.660156 C 10.140625 20.800781 10.554688 21.109375 11.484375 21.109375 Z M 15.210938 21.109375 "/></g></g></g><g fill="#ffffff" fill-opacity="1"><g transform="translate(465.126422, 108.644237)"><g><path d="M 35.699219 -39.527344 C 24.007812 -41.082031 13.554688 -43.355469 13.554688 -52.464844 C 13.554688 -57.742188 17.175781 -67.054688 32.179688 -67.46875 L 32.179688 -73.574219 C 12.625 -73.367188 6.933594 -59.707031 6.933594 -52.257812 C 6.933594 -38.804688 20.28125 -35.492188 31.5625 -33.941406 C 45.738281 -31.871094 53.703125 -28.871094 53.703125 -19.867188 C 53.703125 -8.796875 43.976562 -5.070312 33.835938 -4.863281 L 33.835938 1.136719 C 51.945312 1.242188 60.328125 -9.3125 60.328125 -20.074219 C 60.328125 -33.527344 49.152344 -37.664062 35.699219 -39.527344 Z M 6.207031 -6.828125 C 13.554688 -1.757812 22.246094 0.828125 31.871094 1.136719 L 31.871094 -4.863281 C 24.421875 -5.070312 15.730469 -7.761719 9.519531 -12.003906 C 9.105469 -12.3125 8.796875 -12.417969 8.484375 -12.417969 C 8.070312 -12.417969 7.863281 -12.105469 7.449219 -11.589844 L 5.792969 -8.898438 C 5.277344 -7.863281 5.277344 -7.449219 6.207031 -6.828125 Z M 34.148438 -67.570312 C 41.703125 -67.46875 48.839844 -64.671875 55.152344 -60.429688 C 55.566406 -60.222656 55.773438 -60.121094 56.085938 -60.121094 C 56.601562 -60.121094 56.914062 -60.429688 57.222656 -61.050781 L 58.773438 -63.636719 C 59.1875 -64.570312 59.292969 -65.085938 58.359375 -65.707031 C 51.117188 -70.15625 44.183594 -73.261719 34.148438 -73.574219 Z M 34.148438 -67.570312 "/></g></g></g><g fill="#ffffff" fill-opacity="1"><g transform="translate(531.142046, 108.644237)"><g><path d="M 51.945312 -10.039062 C 51.636719 -10.453125 51.324219 -10.65625 51.015625 -10.65625 C 50.703125 -10.65625 50.394531 -10.453125 49.980469 -10.140625 C 45.117188 -6.414062 38.492188 -4.554688 33.007812 -4.554688 C 21.210938 -4.554688 11.691406 -14.074219 11.691406 -25.457031 L 11.691406 -27.109375 C 11.691406 -37.871094 19.867188 -47.496094 30.835938 -48.324219 L 30.835938 -53.808594 C 16.347656 -53.1875 5.070312 -40.667969 5.070312 -26.285156 C 5.070312 -11.175781 17.074219 1.136719 32.699219 1.136719 C 40.253906 1.136719 48.738281 -1.34375 53.496094 -6.105469 C 54.222656 -6.726562 54.222656 -7.347656 53.601562 -8.175781 Z M 57.742188 -25.351562 C 57.742188 -40.460938 48.425781 -53.394531 32.90625 -53.808594 L 32.90625 -48.324219 C 44.183594 -47.703125 50.910156 -37.769531 51.117188 -28.558594 L 13.96875 -28.558594 C 13.554688 -27.316406 13.554688 -25.144531 13.96875 -23.902344 L 56.394531 -23.902344 C 57.535156 -23.902344 57.742188 -24.316406 57.742188 -25.351562 Z M 57.742188 -25.351562 "/></g></g></g><g fill="#ffffff" fill-opacity="1"><g transform="translate(593.432644, 108.644237)"><g><path d="M 51.945312 -10.039062 C 51.636719 -10.453125 51.324219 -10.65625 51.015625 -10.65625 C 50.703125 -10.65625 50.394531 -10.453125 49.980469 -10.140625 C 45.117188 -6.414062 38.492188 -4.554688 33.007812 -4.554688 C 21.210938 -4.554688 11.691406 -14.074219 11.691406 -25.457031 L 11.691406 -27.109375 C 11.691406 -37.871094 19.867188 -47.496094 30.835938 -48.324219 L 30.835938 -53.808594 C 16.347656 -53.1875 5.070312 -40.667969 5.070312 -26.285156 C 5.070312 -11.175781 17.074219 1.136719 32.699219 1.136719 C 40.253906 1.136719 48.738281 -1.34375 53.496094 -6.105469 C 54.222656 -6.726562 54.222656 -7.347656 53.601562 -8.175781 Z M 57.742188 -25.351562 C 57.742188 -40.460938 48.425781 -53.394531 32.90625 -53.808594 L 32.90625 -48.324219 C 44.183594 -47.703125 50.910156 -37.769531 51.117188 -28.558594 L 13.96875 -28.558594 C 13.554688 -27.316406 13.554688 -25.144531 13.96875 -23.902344 L 56.394531 -23.902344 C 57.535156 -23.902344 57.742188 -24.316406 57.742188 -25.351562 Z M 57.742188 -25.351562 "/></g></g></g><g fill="#ffffff" fill-opacity="1"><g transform="translate(655.723265, 108.644237)"><g><path d="M 29.078125 1.136719 C 37.046875 1.136719 43.355469 -2.691406 46.875 -7.65625 L 46.875 -16.347656 C 42.839844 -7.65625 36.011719 -4.65625 30.214844 -4.65625 C 18.625 -4.65625 11.589844 -14.28125 11.589844 -26.386719 C 11.589844 -37.5625 18.625 -47.910156 30.214844 -47.910156 C 37.25 -47.910156 43.253906 -43.976562 46.875 -36.113281 L 46.875 -44.597656 C 43.355469 -49.773438 37.046875 -53.808594 29.078125 -53.808594 C 14.382812 -53.808594 5.175781 -41.496094 5.175781 -26.386719 C 5.175781 -11.277344 14.382812 1.136719 29.078125 1.136719 Z M 55.257812 -74.917969 C 55.257812 -76.054688 54.84375 -76.367188 53.910156 -76.367188 L 50.1875 -76.367188 C 49.152344 -76.367188 48.839844 -75.953125 48.839844 -74.917969 L 48.839844 -4.554688 L 49.773438 -1.242188 C 50.289062 -0.308594 51.117188 0 51.84375 0 L 53.910156 0 C 54.84375 0 55.257812 -0.308594 55.257812 -1.449219 Z M 55.257812 -74.917969 "/></g></g></g></svg>