<svg xmlns="http://www.w3.org/2000/svg" xmlns:xlink="http://www.w3.org/1999/xlink" width="956" zoomAndPan="magnify" viewBox="0 0 717 164.249993" height="219" preserveAspectRatio="xMidYMid meet" version="1.0"><defs><g/><clipPath id="5ee61ee343"><path d="M 6.109375 5.574219 L 162 5.574219 L 162 161.609375 L 6.109375 161.609375 Z M 6.109375 5.574219 " clip-rule="nonzero"/></clipPath><clipPath id="58fe7af3df"><path d="M 91.015625 161.007812 L 124.058594 106.238281 C 124.214844 105.980469 124.273438 105.671875 124.214844 105.375 L 121.546875 91.027344 C 140.824219 69.703125 155.503906 49.121094 160.179688 27.546875 C 160.234375 27.414062 160.269531 27.277344 160.277344 27.128906 C 161.644531 20.632812 162.117188 14.046875 161.519531 7.320312 C 161.464844 6.722656 160.992188 6.25 160.398438 6.199219 C 153.671875 5.597656 147.085938 6.074219 140.585938 7.441406 C 140.445312 7.449219 140.3125 7.480469 140.183594 7.535156 C 118.605469 12.210938 98.019531 26.890625 76.6875 46.167969 L 62.34375 43.5 C 62.046875 43.445312 61.738281 43.5 61.476562 43.65625 L 6.710938 76.703125 C 6.335938 76.925781 6.113281 77.328125 6.113281 77.761719 C 6.113281 77.789062 6.113281 77.824219 6.117188 77.855469 C 6.152344 78.320312 6.449219 78.726562 6.878906 78.902344 L 37.621094 91.503906 L 34.035156 95.09375 C 33.792969 95.332031 33.671875 95.648438 33.671875 95.964844 C 33.671875 96.28125 33.792969 96.597656 34.035156 96.839844 L 49.570312 112.375 L 45.765625 116.179688 C 45.523438 116.421875 45.402344 116.738281 45.402344 117.054688 C 45.402344 117.371094 45.523438 117.6875 45.765625 117.925781 L 49.789062 121.953125 C 50.273438 122.433594 51.054688 122.433594 51.539062 121.953125 L 55.34375 118.148438 L 70.878906 133.683594 C 71.363281 134.164062 72.140625 134.164062 72.625 133.683594 L 76.210938 130.097656 L 88.8125 160.835938 C 88.992188 161.269531 89.398438 161.5625 89.863281 161.601562 C 90.328125 161.636719 90.773438 161.40625 91.015625 161.007812 Z M 101.527344 71.960938 C 102.011719 71.476562 102.011719 70.695312 101.527344 70.214844 L 97.503906 66.1875 C 97.019531 65.707031 96.238281 65.707031 95.753906 66.1875 L 56.214844 105.726562 L 41.054688 90.566406 L 41.140625 86.964844 C 41.191406 85.074219 41.953125 83.296875 43.292969 81.957031 C 77.175781 48.070312 107.265625 18.003906 139.125 10.324219 C 139.105469 10.601562 139.089844 10.898438 139.089844 11.222656 C 139.089844 14.054688 139.984375 18.566406 144.566406 23.148438 C 149.675781 28.253906 154.691406 28.78125 157.394531 28.597656 C 149.714844 60.453125 119.648438 90.542969 85.761719 124.425781 C 84.421875 125.761719 82.640625 126.527344 80.753906 126.574219 L 77.152344 126.660156 L 61.988281 111.5 Z M 159.140625 8.574219 C 159.570312 14.484375 159.128906 20.300781 157.964844 26.050781 C 156.191406 26.316406 151.359375 26.449219 146.3125 21.402344 C 141.253906 16.34375 141.386719 11.539062 141.660156 9.753906 C 147.417969 8.589844 153.230469 8.148438 159.140625 8.574219 Z M 10.089844 77.550781 L 62.351562 46.015625 L 74.398438 48.257812 C 63.71875 58.042969 52.84375 68.914062 41.546875 80.210938 C 39.757812 82.003906 38.738281 84.378906 38.675781 86.90625 L 38.617188 89.242188 Z M 36.65625 95.964844 L 39.808594 92.8125 L 54.46875 107.476562 L 51.316406 110.625 Z M 48.386719 117.050781 L 96.628906 68.808594 L 98.90625 71.089844 L 50.664062 119.332031 Z M 57.089844 116.398438 L 60.242188 113.25 L 74.902344 127.910156 L 71.75 131.0625 Z M 78.472656 129.101562 L 80.8125 129.042969 C 83.335938 128.980469 85.714844 127.960938 87.503906 126.171875 C 98.804688 114.875 109.675781 104 119.460938 93.320312 L 121.699219 105.363281 L 90.167969 157.628906 Z M 141.3125 44.664062 C 141.3125 39.785156 139.414062 35.199219 135.964844 31.75 C 132.515625 28.300781 127.929688 26.402344 123.050781 26.402344 C 118.175781 26.402344 113.589844 28.300781 110.140625 31.75 C 106.578125 35.3125 104.800781 39.988281 104.800781 44.664062 C 104.800781 49.339844 106.578125 54.015625 110.140625 57.578125 C 117.261719 64.699219 128.84375 64.699219 135.964844 57.578125 C 139.414062 54.128906 141.3125 49.542969 141.3125 44.664062 Z M 111.886719 55.832031 C 105.730469 49.671875 105.730469 39.65625 111.886719 33.5 C 114.871094 30.515625 118.832031 28.871094 123.050781 28.871094 C 127.269531 28.871094 131.234375 30.515625 134.21875 33.5 C 137.199219 36.480469 138.84375 40.445312 138.84375 44.664062 C 138.84375 48.882812 137.199219 52.847656 134.21875 55.832031 C 128.0625 61.988281 118.042969 61.988281 111.886719 55.832031 Z M 132.347656 35.371094 C 127.222656 30.246094 118.882812 30.246094 113.757812 35.371094 C 111.195312 37.933594 109.914062 41.296875 109.914062 44.664062 C 109.914062 48.03125 111.195312 51.394531 113.757812 53.957031 C 118.882812 59.082031 127.222656 59.082031 132.347656 53.957031 C 137.472656 48.835938 137.472656 40.496094 132.347656 35.371094 Z M 115.503906 52.210938 C 111.34375 48.050781 111.34375 41.277344 115.503906 37.117188 C 119.667969 32.957031 126.4375 32.957031 130.601562 37.117188 C 132.679688 39.199219 133.722656 41.929688 133.722656 44.664062 C 133.722656 47.398438 132.679688 50.132812 130.601562 52.210938 C 126.4375 56.371094 119.667969 56.371094 115.503906 52.210938 Z M 115.503906 52.210938 " clip-rule="nonzero"/></clipPath></defs><g clip-path="url(#5ee61ee343)"><g clip-path="url(#58fe7af3df)"><path fill="#ec407a" d="M 162.117188 5.597656 L 6.113281 5.597656 L 6.113281 161.609375 L 162.117188 161.609375 Z M 162.117188 5.597656 " fill-opacity="1" fill-rule="nonzero"/></g></g><g fill="#ffffff" fill-opacity="1"><g transform="translate(224.186046, 110.582645)"><g><path d="M 8.320312 0 C 9.332031 0 9.78125 -0.335938 10.34375 -1.574219 L 39.804688 -67.804688 L 39.917969 -67.804688 L 56.558594 -30.472656 L 63.867188 -30.472656 L 41.15625 -79.386719 C 40.816406 -80.171875 40.480469 -80.734375 40.03125 -80.734375 L 39.691406 -80.734375 C 39.128906 -80.734375 38.792969 -80.171875 38.457031 -79.386719 L 2.136719 -1.574219 C 1.800781 -0.675781 2.136719 0 3.035156 0 Z M 24.738281 -28.335938 L 21.8125 -21.925781 L 60.046875 -21.925781 L 69.265625 -1.574219 C 69.941406 -0.335938 70.277344 0 71.289062 0 L 76.460938 0 C 77.472656 0 77.921875 -0.675781 77.472656 -1.574219 L 64.992188 -28.335938 Z M 24.738281 -28.335938 "/></g></g></g><g fill="#ffffff" fill-opacity="1"><g transform="translate(303.458829, 110.582645)"><g><path d="M 39.46875 -58.472656 C 30.808594 -58.472656 23.949219 -54.308594 20.128906 -48.914062 L 20.128906 -39.355469 C 24.511719 -48.914062 32.046875 -52.175781 38.230469 -52.175781 C 50.824219 -52.175781 58.582031 -41.714844 58.582031 -28.5625 C 58.582031 -16.417969 50.824219 -5.171875 38.230469 -5.171875 C 30.585938 -5.171875 24.0625 -9.445312 20.128906 -17.992188 L 20.128906 -8.769531 C 23.949219 -3.148438 30.808594 1.238281 39.46875 1.238281 C 55.433594 1.238281 65.441406 -12.144531 65.441406 -28.5625 C 65.441406 -44.863281 55.433594 -58.472656 39.46875 -58.472656 Z M 16.527344 22.9375 C 17.652344 22.9375 17.992188 22.488281 17.992188 21.363281 L 17.992188 -52.285156 L 17.089844 -55.882812 C 16.417969 -56.785156 15.628906 -57.234375 14.730469 -57.234375 L 12.480469 -57.234375 C 11.46875 -57.234375 11.019531 -56.898438 11.019531 -55.660156 L 11.019531 21.363281 C 11.019531 22.601562 11.46875 22.9375 12.480469 22.9375 Z M 16.527344 22.9375 "/></g></g></g><g fill="#ffffff" fill-opacity="1"><g transform="translate(374.523225, 110.582645)"><g><path d="M 39.46875 -58.472656 C 30.808594 -58.472656 23.949219 -54.308594 20.128906 -48.914062 L 20.128906 -39.355469 C 24.511719 -48.914062 32.046875 -52.175781 38.230469 -52.175781 C 50.824219 -52.175781 58.582031 -41.714844 58.582031 -28.5625 C 58.582031 -16.417969 50.824219 -5.171875 38.230469 -5.171875 C 30.585938 -5.171875 24.0625 -9.445312 20.128906 -17.992188 L 20.128906 -8.769531 C 23.949219 -3.148438 30.808594 1.238281 39.46875 1.238281 C 55.433594 1.238281 65.441406 -12.144531 65.441406 -28.5625 C 65.441406 -44.863281 55.433594 -58.472656 39.46875 -58.472656 Z M 16.527344 22.9375 C 17.652344 22.9375 17.992188 22.488281 17.992188 21.363281 L 17.992188 -52.285156 L 17.089844 -55.882812 C 16.417969 -56.785156 15.628906 -57.234375 14.730469 -57.234375 L 12.480469 -57.234375 C 11.46875 -57.234375 11.019531 -56.898438 11.019531 -55.660156 L 11.019531 21.363281 C 11.019531 22.601562 11.46875 22.9375 12.480469 22.9375 Z M 16.527344 22.9375 "/></g></g></g><g fill="#ffffff" fill-opacity="1"><g transform="translate(445.587621, 110.582645)"><g><path d="M 38.792969 -42.953125 C 26.085938 -44.640625 14.730469 -47.113281 14.730469 -57.007812 C 14.730469 -62.742188 18.664062 -72.863281 34.96875 -73.3125 L 34.96875 -79.949219 C 13.71875 -79.722656 7.535156 -64.878906 7.535156 -56.785156 C 7.535156 -42.167969 22.039062 -38.566406 34.296875 -36.882812 C 49.699219 -34.632812 58.359375 -31.371094 58.359375 -21.589844 C 58.359375 -9.558594 47.789062 -5.507812 36.769531 -5.285156 L 36.769531 1.238281 C 56.445312 1.347656 65.554688 -10.121094 65.554688 -21.8125 C 65.554688 -36.433594 53.410156 -40.929688 38.792969 -42.953125 Z M 6.746094 -7.421875 C 14.730469 -1.910156 24.175781 0.898438 34.632812 1.238281 L 34.632812 -5.285156 C 26.535156 -5.507812 17.089844 -8.433594 10.34375 -13.042969 C 9.894531 -13.378906 9.558594 -13.492188 9.21875 -13.492188 C 8.769531 -13.492188 8.546875 -13.15625 8.097656 -12.59375 L 6.296875 -9.671875 C 5.734375 -8.546875 5.734375 -8.097656 6.746094 -7.421875 Z M 37.105469 -73.425781 C 45.316406 -73.3125 53.074219 -70.277344 59.933594 -65.667969 C 60.382812 -65.441406 60.605469 -65.328125 60.945312 -65.328125 C 61.507812 -65.328125 61.84375 -65.667969 62.179688 -66.34375 L 63.867188 -69.152344 C 64.316406 -70.164062 64.429688 -70.726562 63.417969 -71.402344 C 55.546875 -76.238281 48.011719 -79.609375 37.105469 -79.949219 Z M 37.105469 -73.425781 "/></g></g></g><g fill="#ffffff" fill-opacity="1"><g transform="translate(517.326668, 110.582645)"><g><path d="M 56.445312 -10.90625 C 56.109375 -11.355469 55.773438 -11.582031 55.433594 -11.582031 C 55.097656 -11.582031 54.761719 -11.355469 54.308594 -11.019531 C 49.027344 -6.972656 41.828125 -4.949219 35.871094 -4.949219 C 23.050781 -4.949219 12.707031 -15.292969 12.707031 -27.660156 L 12.707031 -29.460938 C 12.707031 -41.15625 21.589844 -51.613281 33.507812 -52.511719 L 33.507812 -58.472656 C 17.765625 -57.796875 5.507812 -44.191406 5.507812 -28.5625 C 5.507812 -12.144531 18.554688 1.238281 35.53125 1.238281 C 43.742188 1.238281 52.960938 -1.460938 58.132812 -6.632812 C 58.921875 -7.308594 58.921875 -7.984375 58.246094 -8.882812 Z M 62.742188 -27.546875 C 62.742188 -43.964844 52.625 -58.019531 35.757812 -58.472656 L 35.757812 -52.511719 C 48.011719 -51.835938 55.324219 -41.042969 55.546875 -31.035156 L 15.179688 -31.035156 C 14.730469 -29.683594 14.730469 -27.324219 15.179688 -25.972656 L 61.28125 -25.972656 C 62.519531 -25.972656 62.742188 -26.425781 62.742188 -27.546875 Z M 62.742188 -27.546875 "/></g></g></g><g fill="#ffffff" fill-opacity="1"><g transform="translate(585.017769, 110.582645)"><g><path d="M 56.445312 -10.90625 C 56.109375 -11.355469 55.773438 -11.582031 55.433594 -11.582031 C 55.097656 -11.582031 54.761719 -11.355469 54.308594 -11.019531 C 49.027344 -6.972656 41.828125 -4.949219 35.871094 -4.949219 C 23.050781 -4.949219 12.707031 -15.292969 12.707031 -27.660156 L 12.707031 -29.460938 C 12.707031 -41.15625 21.589844 -51.613281 33.507812 -52.511719 L 33.507812 -58.472656 C 17.765625 -57.796875 5.507812 -44.191406 5.507812 -28.5625 C 5.507812 -12.144531 18.554688 1.238281 35.53125 1.238281 C 43.742188 1.238281 52.960938 -1.460938 58.132812 -6.632812 C 58.921875 -7.308594 58.921875 -7.984375 58.246094 -8.882812 Z M 62.742188 -27.546875 C 62.742188 -43.964844 52.625 -58.019531 35.757812 -58.472656 L 35.757812 -52.511719 C 48.011719 -51.835938 55.324219 -41.042969 55.546875 -31.035156 L 15.179688 -31.035156 C 14.730469 -29.683594 14.730469 -27.324219 15.179688 -25.972656 L 61.28125 -25.972656 C 62.519531 -25.972656 62.742188 -26.425781 62.742188 -27.546875 Z M 62.742188 -27.546875 "/></g></g></g><g fill="#ffffff" fill-opacity="1"><g transform="translate(652.708869, 110.582645)"><g><path d="M 31.597656 1.238281 C 40.253906 1.238281 47.113281 -2.921875 50.9375 -8.320312 L 50.9375 -17.765625 C 46.550781 -8.320312 39.128906 -5.058594 32.832031 -5.058594 C 20.238281 -5.058594 12.59375 -15.515625 12.59375 -28.671875 C 12.59375 -40.816406 20.238281 -52.0625 32.832031 -52.0625 C 40.480469 -52.0625 47 -47.789062 50.9375 -39.242188 L 50.9375 -48.464844 C 47.113281 -54.085938 40.253906 -58.472656 31.597656 -58.472656 C 15.628906 -58.472656 5.621094 -45.089844 5.621094 -28.671875 C 5.621094 -12.257812 15.628906 1.238281 31.597656 1.238281 Z M 60.046875 -81.410156 C 60.046875 -82.644531 59.59375 -82.984375 58.582031 -82.984375 L 54.535156 -82.984375 C 53.410156 -82.984375 53.074219 -82.535156 53.074219 -81.410156 L 53.074219 -4.949219 L 54.085938 -1.347656 C 54.648438 -0.335938 55.546875 0 56.335938 0 L 58.582031 0 C 59.59375 0 60.046875 -0.335938 60.046875 -1.574219 Z M 60.046875 -81.410156 "/></g></g></g></svg>