<svg xmlns="http://www.w3.org/2000/svg" xmlns:xlink="http://www.w3.org/1999/xlink" width="956" zoomAndPan="magnify" viewBox="0 0 717 164.249993" height="219" preserveAspectRatio="xMidYMid meet" version="1.0"><defs><g/><clipPath id="6ca5a80573"><path d="M 87 81 L 131 81 L 131 155.289062 L 87 155.289062 Z M 87 81 " clip-rule="nonzero"/></clipPath><clipPath id="0056323ca5"><path d="M 47 0 L 163.125 0 L 163.125 117 L 47 117 Z M 47 0 " clip-rule="nonzero"/></clipPath><clipPath id="5d213551df"><path d="M 7.835938 33 L 93 33 L 93 126 L 7.835938 126 Z M 7.835938 33 " clip-rule="nonzero"/></clipPath></defs><g clip-path="url(#6ca5a80573)"><path fill="#ec407a" d="M 89.359375 155.171875 C 89.046875 155.171875 88.738281 155.109375 88.445312 154.984375 C 87.570312 154.617188 87 153.753906 87.003906 152.792969 L 87.480469 113.765625 C 87.492188 112.460938 88.542969 111.417969 89.851562 111.4375 C 91.15625 111.453125 92.191406 112.519531 92.175781 113.8125 L 91.78125 147.078125 L 120.070312 118.789062 C 120.332031 118.449219 129.933594 106.386719 122.796875 84.976562 C 122.386719 83.742188 123.054688 82.421875 124.28125 82.003906 C 125.527344 81.597656 126.839844 82.261719 127.253906 83.484375 C 135.257812 107.5 124.023438 121.371094 123.535156 121.949219 L 91.023438 154.484375 C 90.570312 154.9375 89.972656 155.171875 89.359375 155.171875 " fill-opacity="1" fill-rule="nonzero"/></g><g clip-path="url(#0056323ca5)"><path fill="#ec407a" d="M 52.453125 73.085938 L 90.089844 110.722656 C 92.75 108.65625 100.753906 102.152344 123.484375 82.457031 C 151.113281 58.519531 157.023438 16.097656 158.121094 5.046875 C 147.0625 6.144531 104.625 12.078125 80.707031 39.675781 C 61.183594 62.207031 54.625 70.273438 52.453125 73.085938 Z M 89.832031 116.136719 C 89.21875 116.136719 88.621094 115.902344 88.167969 115.449219 L 47.71875 74.992188 C 47.023438 74.304688 46.835938 73.261719 47.234375 72.375 C 47.964844 70.753906 59.148438 57.382812 77.15625 36.597656 C 106.007812 3.304688 158.359375 0.242188 160.566406 0.128906 C 161.296875 0.0742188 161.882812 0.34375 162.355469 0.8125 C 162.820312 1.28125 163.070312 1.929688 163.035156 2.597656 C 162.925781 4.804688 159.855469 57.152344 126.5625 86.003906 C 105.785156 104.019531 92.414062 115.199219 90.792969 115.929688 C 90.484375 116.066406 90.160156 116.136719 89.832031 116.136719 " fill-opacity="1" fill-rule="nonzero"/></g><g clip-path="url(#5d213551df)"><path fill="#ec407a" d="M 67.007812 125.136719 C 66.402344 125.136719 65.796875 124.902344 65.351562 124.457031 L 38.707031 97.816406 C 38.046875 97.15625 37.84375 96.160156 38.183594 95.289062 L 45.910156 75.722656 L 10.371094 76.15625 C 9.285156 76.085938 8.546875 75.597656 8.175781 74.714844 C 7.808594 73.839844 8.003906 72.820312 8.679688 72.148438 L 41.050781 39.773438 C 41.789062 39.144531 55.664062 27.90625 79.675781 35.910156 C 80.910156 36.320312 81.570312 37.648438 81.160156 38.882812 C 80.75 40.113281 79.425781 40.761719 78.1875 40.371094 C 56.789062 33.230469 44.71875 42.835938 44.210938 43.238281 L 16.078125 71.386719 L 49.347656 70.984375 C 50.238281 71.066406 50.867188 71.359375 51.3125 72 C 51.757812 72.648438 51.847656 73.46875 51.5625 74.199219 L 43.121094 95.582031 L 67.578125 120.042969 L 88.96875 111.605469 C 90.171875 111.125 91.539062 111.71875 92.015625 112.921875 C 92.492188 114.132812 91.898438 115.496094 90.695312 115.96875 L 67.871094 124.976562 C 67.59375 125.089844 67.300781 125.136719 67.007812 125.136719 " fill-opacity="1" fill-rule="nonzero"/></g><path fill="#ec407a" d="M 16.0625 126.273438 C 15.464844 126.273438 14.859375 126.042969 14.40625 125.582031 C 13.488281 124.664062 13.488281 123.175781 14.40625 122.261719 L 27.667969 108.996094 C 28.585938 108.078125 30.066406 108.078125 30.988281 108.996094 C 31.90625 109.914062 31.90625 111.398438 30.988281 112.316406 L 17.726562 125.582031 C 17.269531 126.042969 16.667969 126.273438 16.0625 126.273438 " fill-opacity="1" fill-rule="nonzero"/><path fill="#ec407a" d="M 15.972656 149.542969 C 15.367188 149.542969 14.769531 149.3125 14.308594 148.851562 C 13.390625 147.933594 13.390625 146.449219 14.308594 145.53125 L 39.257812 120.585938 C 40.175781 119.667969 41.664062 119.667969 42.578125 120.585938 C 43.496094 121.503906 43.496094 122.988281 42.578125 123.90625 L 17.628906 148.851562 C 17.171875 149.3125 16.570312 149.542969 15.972656 149.542969 " fill-opacity="1" fill-rule="nonzero"/><path fill="#ec407a" d="M 39.242188 149.449219 C 38.644531 149.449219 38.039062 149.222656 37.578125 148.761719 C 36.667969 147.84375 36.667969 146.359375 37.578125 145.441406 L 50.84375 132.175781 C 51.765625 131.257812 53.246094 131.257812 54.164062 132.175781 C 55.085938 133.09375 55.085938 134.578125 54.164062 135.496094 L 40.90625 148.761719 C 40.445312 149.222656 39.839844 149.449219 39.242188 149.449219 " fill-opacity="1" fill-rule="nonzero"/><path fill="#ec407a" d="M 153.902344 39.300781 L 153.898438 39.300781 C 124.320312 39.1875 123.867188 9.570312 123.867188 9.273438 C 123.863281 7.972656 124.90625 6.921875 126.207031 6.914062 C 127.378906 6.847656 128.5625 7.957031 128.566406 9.246094 C 128.574219 10.28125 129.035156 34.511719 153.917969 34.601562 C 155.210938 34.609375 156.265625 35.660156 156.257812 36.960938 C 156.25 38.253906 155.199219 39.300781 153.902344 39.300781 " fill-opacity="1" fill-rule="nonzero"/><path fill="#ec407a" d="M 108.644531 40.449219 C 104.878906 40.449219 101.351562 41.910156 98.691406 44.570312 C 96.035156 47.226562 94.566406 50.761719 94.566406 54.515625 C 94.566406 58.28125 96.035156 61.816406 98.691406 64.46875 C 101.351562 67.128906 104.878906 68.597656 108.644531 68.597656 C 112.40625 68.597656 115.933594 67.128906 118.59375 64.46875 C 121.253906 61.816406 122.71875 58.28125 122.71875 54.515625 C 122.71875 50.761719 121.253906 47.226562 118.59375 44.570312 C 115.933594 41.910156 112.40625 40.449219 108.644531 40.449219 Z M 108.644531 73.296875 C 103.628906 73.296875 98.914062 71.339844 95.371094 67.796875 C 91.824219 64.246094 89.867188 59.535156 89.867188 54.515625 C 89.867188 49.503906 91.824219 44.792969 95.371094 41.25 C 98.914062 37.699219 103.628906 35.75 108.644531 35.75 C 113.65625 35.75 118.371094 37.699219 121.921875 41.25 C 125.464844 44.792969 127.417969 49.503906 127.417969 54.515625 C 127.417969 59.535156 125.464844 64.246094 121.921875 67.796875 C 118.371094 71.339844 113.65625 73.296875 108.644531 73.296875 " fill-opacity="1" fill-rule="nonzero"/><g fill="#ffffff" fill-opacity="1"><g transform="translate(244.542487, 111.989823)"><g><path d="M 7.65625 0 C 8.589844 0 9.003906 -0.308594 9.519531 -1.449219 L 36.632812 -62.398438 L 36.734375 -62.398438 L 52.050781 -28.042969 L 58.773438 -28.042969 L 37.871094 -73.054688 C 37.5625 -73.78125 37.25 -74.296875 36.839844 -74.296875 L 36.527344 -74.296875 C 36.011719 -74.296875 35.699219 -73.78125 35.390625 -73.054688 L 1.964844 -1.449219 C 1.65625 -0.621094 1.964844 0 2.792969 0 Z M 22.765625 -26.078125 L 20.074219 -20.179688 L 55.257812 -20.179688 L 63.742188 -1.449219 C 64.363281 -0.308594 64.671875 0 65.605469 0 L 70.363281 0 C 71.296875 0 71.710938 -0.621094 71.296875 -1.449219 L 59.808594 -26.078125 Z M 22.765625 -26.078125 "/></g></g></g><g fill="#ffffff" fill-opacity="1"><g transform="translate(317.49079, 111.989823)"><g><path d="M 36.320312 -53.808594 C 28.351562 -53.808594 22.039062 -49.980469 18.523438 -45.011719 L 18.523438 -36.21875 C 22.558594 -45.011719 29.492188 -48.011719 35.183594 -48.011719 C 46.773438 -48.011719 53.910156 -38.390625 53.910156 -26.285156 C 53.910156 -15.109375 46.773438 -4.761719 35.183594 -4.761719 C 28.144531 -4.761719 22.144531 -8.691406 18.523438 -16.554688 L 18.523438 -8.070312 C 22.039062 -2.898438 28.351562 1.136719 36.320312 1.136719 C 51.015625 1.136719 60.222656 -11.175781 60.222656 -26.285156 C 60.222656 -41.289062 51.015625 -53.808594 36.320312 -53.808594 Z M 15.210938 21.109375 C 16.246094 21.109375 16.554688 20.695312 16.554688 19.660156 L 16.554688 -48.117188 L 15.730469 -51.429688 C 15.109375 -52.257812 14.382812 -52.671875 13.554688 -52.671875 L 11.484375 -52.671875 C 10.554688 -52.671875 10.140625 -52.359375 10.140625 -51.222656 L 10.140625 19.660156 C 10.140625 20.800781 10.554688 21.109375 11.484375 21.109375 Z M 15.210938 21.109375 "/></g></g></g><g fill="#ffffff" fill-opacity="1"><g transform="translate(382.88558, 111.989823)"><g><path d="M 36.320312 -53.808594 C 28.351562 -53.808594 22.039062 -49.980469 18.523438 -45.011719 L 18.523438 -36.21875 C 22.558594 -45.011719 29.492188 -48.011719 35.183594 -48.011719 C 46.773438 -48.011719 53.910156 -38.390625 53.910156 -26.285156 C 53.910156 -15.109375 46.773438 -4.761719 35.183594 -4.761719 C 28.144531 -4.761719 22.144531 -8.691406 18.523438 -16.554688 L 18.523438 -8.070312 C 22.039062 -2.898438 28.351562 1.136719 36.320312 1.136719 C 51.015625 1.136719 60.222656 -11.175781 60.222656 -26.285156 C 60.222656 -41.289062 51.015625 -53.808594 36.320312 -53.808594 Z M 15.210938 21.109375 C 16.246094 21.109375 16.554688 20.695312 16.554688 19.660156 L 16.554688 -48.117188 L 15.730469 -51.429688 C 15.109375 -52.257812 14.382812 -52.671875 13.554688 -52.671875 L 11.484375 -52.671875 C 10.554688 -52.671875 10.140625 -52.359375 10.140625 -51.222656 L 10.140625 19.660156 C 10.140625 20.800781 10.554688 21.109375 11.484375 21.109375 Z M 15.210938 21.109375 "/></g></g></g><g fill="#ffffff" fill-opacity="1"><g transform="translate(448.280359, 111.989823)"><g><path d="M 35.699219 -39.527344 C 24.007812 -41.082031 13.554688 -43.355469 13.554688 -52.464844 C 13.554688 -57.742188 17.175781 -67.054688 32.179688 -67.46875 L 32.179688 -73.574219 C 12.625 -73.367188 6.933594 -59.707031 6.933594 -52.257812 C 6.933594 -38.804688 20.28125 -35.492188 31.5625 -33.941406 C 45.738281 -31.871094 53.703125 -28.871094 53.703125 -19.867188 C 53.703125 -8.796875 43.976562 -5.070312 33.835938 -4.863281 L 33.835938 1.136719 C 51.945312 1.242188 60.328125 -9.3125 60.328125 -20.074219 C 60.328125 -33.527344 49.152344 -37.664062 35.699219 -39.527344 Z M 6.207031 -6.828125 C 13.554688 -1.757812 22.246094 0.828125 31.871094 1.136719 L 31.871094 -4.863281 C 24.421875 -5.070312 15.730469 -7.761719 9.519531 -12.003906 C 9.105469 -12.3125 8.796875 -12.417969 8.484375 -12.417969 C 8.070312 -12.417969 7.863281 -12.105469 7.449219 -11.589844 L 5.792969 -8.898438 C 5.277344 -7.863281 5.277344 -7.449219 6.207031 -6.828125 Z M 34.148438 -67.570312 C 41.703125 -67.46875 48.839844 -64.671875 55.152344 -60.429688 C 55.566406 -60.222656 55.773438 -60.121094 56.085938 -60.121094 C 56.601562 -60.121094 56.914062 -60.429688 57.222656 -61.050781 L 58.773438 -63.636719 C 59.1875 -64.570312 59.292969 -65.085938 58.359375 -65.707031 C 51.117188 -70.15625 44.183594 -73.261719 34.148438 -73.574219 Z M 34.148438 -67.570312 "/></g></g></g><g fill="#ffffff" fill-opacity="1"><g transform="translate(514.295982, 111.989823)"><g><path d="M 51.945312 -10.039062 C 51.636719 -10.453125 51.324219 -10.65625 51.015625 -10.65625 C 50.703125 -10.65625 50.394531 -10.453125 49.980469 -10.140625 C 45.117188 -6.414062 38.492188 -4.554688 33.007812 -4.554688 C 21.210938 -4.554688 11.691406 -14.074219 11.691406 -25.457031 L 11.691406 -27.109375 C 11.691406 -37.871094 19.867188 -47.496094 30.835938 -48.324219 L 30.835938 -53.808594 C 16.347656 -53.1875 5.070312 -40.667969 5.070312 -26.285156 C 5.070312 -11.175781 17.074219 1.136719 32.699219 1.136719 C 40.253906 1.136719 48.738281 -1.34375 53.496094 -6.105469 C 54.222656 -6.726562 54.222656 -7.347656 53.601562 -8.175781 Z M 57.742188 -25.351562 C 57.742188 -40.460938 48.425781 -53.394531 32.90625 -53.808594 L 32.90625 -48.324219 C 44.183594 -47.703125 50.910156 -37.769531 51.117188 -28.558594 L 13.96875 -28.558594 C 13.554688 -27.316406 13.554688 -25.144531 13.96875 -23.902344 L 56.394531 -23.902344 C 57.535156 -23.902344 57.742188 -24.316406 57.742188 -25.351562 Z M 57.742188 -25.351562 "/></g></g></g><g fill="#ffffff" fill-opacity="1"><g transform="translate(576.58658, 111.989823)"><g><path d="M 51.945312 -10.039062 C 51.636719 -10.453125 51.324219 -10.65625 51.015625 -10.65625 C 50.703125 -10.65625 50.394531 -10.453125 49.980469 -10.140625 C 45.117188 -6.414062 38.492188 -4.554688 33.007812 -4.554688 C 21.210938 -4.554688 11.691406 -14.074219 11.691406 -25.457031 L 11.691406 -27.109375 C 11.691406 -37.871094 19.867188 -47.496094 30.835938 -48.324219 L 30.835938 -53.808594 C 16.347656 -53.1875 5.070312 -40.667969 5.070312 -26.285156 C 5.070312 -11.175781 17.074219 1.136719 32.699219 1.136719 C 40.253906 1.136719 48.738281 -1.34375 53.496094 -6.105469 C 54.222656 -6.726562 54.222656 -7.347656 53.601562 -8.175781 Z M 57.742188 -25.351562 C 57.742188 -40.460938 48.425781 -53.394531 32.90625 -53.808594 L 32.90625 -48.324219 C 44.183594 -47.703125 50.910156 -37.769531 51.117188 -28.558594 L 13.96875 -28.558594 C 13.554688 -27.316406 13.554688 -25.144531 13.96875 -23.902344 L 56.394531 -23.902344 C 57.535156 -23.902344 57.742188 -24.316406 57.742188 -25.351562 Z M 57.742188 -25.351562 "/></g></g></g><g fill="#ffffff" fill-opacity="1"><g transform="translate(638.877201, 111.989823)"><g><path d="M 29.078125 1.136719 C 37.046875 1.136719 43.355469 -2.691406 46.875 -7.65625 L 46.875 -16.347656 C 42.839844 -7.65625 36.011719 -4.65625 30.214844 -4.65625 C 18.625 -4.65625 11.589844 -14.28125 11.589844 -26.386719 C 11.589844 -37.5625 18.625 -47.910156 30.214844 -47.910156 C 37.25 -47.910156 43.253906 -43.976562 46.875 -36.113281 L 46.875 -44.597656 C 43.355469 -49.773438 37.046875 -53.808594 29.078125 -53.808594 C 14.382812 -53.808594 5.175781 -41.496094 5.175781 -26.386719 C 5.175781 -11.277344 14.382812 1.136719 29.078125 1.136719 Z M 55.257812 -74.917969 C 55.257812 -76.054688 54.84375 -76.367188 53.910156 -76.367188 L 50.1875 -76.367188 C 49.152344 -76.367188 48.839844 -75.953125 48.839844 -74.917969 L 48.839844 -4.554688 L 49.773438 -1.242188 C 50.289062 -0.308594 51.117188 0 51.84375 0 L 53.910156 0 C 54.84375 0 55.257812 -0.308594 55.257812 -1.449219 Z M 55.257812 -74.917969 "/></g></g></g></svg>