<svg xmlns="http://www.w3.org/2000/svg" xmlns:xlink="http://www.w3.org/1999/xlink" width="956" zoomAndPan="magnify" viewBox="0 0 717 164.249993" height="219" preserveAspectRatio="xMidYMid meet" version="1.0"><defs><g/><clipPath id="c5c722acdb"><path d="M 9 6 L 168 6 L 168 163.503906 L 9 163.503906 Z M 9 6 " clip-rule="nonzero"/></clipPath></defs><g clip-path="url(#c5c722acdb)"><path fill="#ec407a" d="M 76.519531 144.386719 C 76.550781 144.035156 76.597656 143.679688 76.613281 143.328125 C 76.964844 137.9375 76.875 131.566406 75.585938 125.300781 L 75.585938 125.257812 C 72.222656 128.480469 68.644531 131.78125 64.773438 135.21875 C 64.652344 127.007812 62.242188 120.359375 57.710938 115.832031 L 57.710938 115.816406 C 57.695312 115.816406 57.695312 115.816406 57.695312 115.816406 C 53.167969 111.285156 46.515625 108.875 38.300781 108.753906 C 41.742188 104.882812 45.042969 101.308594 48.269531 97.945312 L 48.222656 97.945312 C 41.957031 96.65625 35.585938 96.546875 30.179688 96.914062 C 29.84375 96.929688 29.488281 96.976562 29.136719 97.007812 C 45.335938 80.828125 59.214844 81.488281 64.160156 82.40625 C 103.851562 46.34375 122.539062 50.996094 122.539062 50.996094 C 122.539062 50.996094 127.195312 69.679688 91.125 109.367188 C 92.046875 114.308594 92.707031 128.1875 76.519531 144.386719 Z M 139.617188 25.296875 C 110.300781 0.117188 66.355469 0.0429688 36.980469 25.144531 C 7.820312 50.042969 1.632812 90.714844 18.386719 122.339844 C 23.46875 131.949219 37.058594 132.609375 43.339844 123.722656 L 43.355469 123.707031 L 35.414062 115.785156 C 35.429688 115.769531 35.414062 115.769531 35.429688 115.769531 C 40.714844 115.355469 48.253906 115.785156 52.996094 120.527344 C 57.742188 125.273438 58.171875 132.808594 57.757812 138.089844 C 57.757812 138.089844 57.742188 138.089844 57.742188 138.105469 L 49.820312 130.167969 C 40.851562 136.511719 41.679688 150.144531 51.402344 155.238281 C 81.21875 170.929688 119.039062 166.246094 144.082031 141.207031 C 176.328125 108.96875 174.839844 55.585938 139.617188 25.296875 " fill-opacity="1" fill-rule="nonzero"/></g><path fill="#ec407a" d="M 95.5 86.84375 C 93.074219 89.269531 89.128906 89.269531 86.6875 86.84375 C 84.261719 84.402344 84.261719 80.457031 86.6875 78.03125 C 89.128906 75.589844 93.074219 75.589844 95.5 78.03125 C 97.941406 80.457031 97.941406 84.402344 95.5 86.84375 " fill-opacity="1" fill-rule="nonzero"/><g fill="#000000" fill-opacity="1"><g transform="translate(209.683036, 115.301791)"><g><path d="M 8.527344 0 C 9.5625 0 10.023438 -0.34375 10.597656 -1.613281 L 40.785156 -69.472656 L 40.898438 -69.472656 L 57.949219 -31.222656 L 65.4375 -31.222656 L 42.167969 -81.335938 C 41.820312 -82.144531 41.476562 -82.71875 41.015625 -82.71875 L 40.667969 -82.71875 C 40.09375 -82.71875 39.746094 -82.144531 39.402344 -81.335938 L 2.1875 -1.613281 C 1.84375 -0.691406 2.1875 0 3.109375 0 Z M 25.347656 -29.03125 L 22.351562 -22.464844 L 61.523438 -22.464844 L 70.96875 -1.613281 C 71.660156 -0.34375 72.003906 0 73.042969 0 L 78.34375 0 C 79.378906 0 79.839844 -0.691406 79.378906 -1.613281 L 66.589844 -29.03125 Z M 25.347656 -29.03125 "/></g></g></g><g fill="#000000" fill-opacity="1"><g transform="translate(290.898142, 115.301791)"><g><path d="M 40.4375 -59.910156 C 31.566406 -59.910156 24.539062 -55.644531 20.621094 -50.117188 L 20.621094 -40.324219 C 25.117188 -50.117188 32.835938 -53.457031 39.171875 -53.457031 C 52.074219 -53.457031 60.023438 -42.742188 60.023438 -29.261719 C 60.023438 -16.820312 52.074219 -5.300781 39.171875 -5.300781 C 31.335938 -5.300781 24.65625 -9.675781 20.621094 -18.433594 L 20.621094 -8.984375 C 24.539062 -3.226562 31.566406 1.265625 40.4375 1.265625 C 56.796875 1.265625 67.050781 -12.441406 67.050781 -29.261719 C 67.050781 -45.96875 56.796875 -59.910156 40.4375 -59.910156 Z M 16.9375 23.503906 C 18.085938 23.503906 18.433594 23.042969 18.433594 21.890625 L 18.433594 -53.574219 L 17.511719 -57.257812 C 16.820312 -58.179688 16.015625 -58.640625 15.09375 -58.640625 L 12.789062 -58.640625 C 11.75 -58.640625 11.289062 -58.296875 11.289062 -57.027344 L 11.289062 21.890625 C 11.289062 23.15625 11.75 23.503906 12.789062 23.503906 Z M 16.9375 23.503906 "/></g></g></g><g fill="#000000" fill-opacity="1"><g transform="translate(363.70374, 115.301791)"><g><path d="M 40.4375 -59.910156 C 31.566406 -59.910156 24.539062 -55.644531 20.621094 -50.117188 L 20.621094 -40.324219 C 25.117188 -50.117188 32.835938 -53.457031 39.171875 -53.457031 C 52.074219 -53.457031 60.023438 -42.742188 60.023438 -29.261719 C 60.023438 -16.820312 52.074219 -5.300781 39.171875 -5.300781 C 31.335938 -5.300781 24.65625 -9.675781 20.621094 -18.433594 L 20.621094 -8.984375 C 24.539062 -3.226562 31.566406 1.265625 40.4375 1.265625 C 56.796875 1.265625 67.050781 -12.441406 67.050781 -29.261719 C 67.050781 -45.96875 56.796875 -59.910156 40.4375 -59.910156 Z M 16.9375 23.503906 C 18.085938 23.503906 18.433594 23.042969 18.433594 21.890625 L 18.433594 -53.574219 L 17.511719 -57.257812 C 16.820312 -58.179688 16.015625 -58.640625 15.09375 -58.640625 L 12.789062 -58.640625 C 11.75 -58.640625 11.289062 -58.296875 11.289062 -57.027344 L 11.289062 21.890625 C 11.289062 23.15625 11.75 23.503906 12.789062 23.503906 Z M 16.9375 23.503906 "/></g></g></g><g fill="#000000" fill-opacity="1"><g transform="translate(436.509337, 115.301791)"><g><path d="M 39.746094 -44.011719 C 26.730469 -45.738281 15.09375 -48.273438 15.09375 -58.410156 C 15.09375 -64.285156 19.125 -74.65625 35.832031 -75.117188 L 35.832031 -81.914062 C 14.054688 -81.683594 7.71875 -66.476562 7.71875 -58.179688 C 7.71875 -43.203125 22.582031 -39.515625 35.140625 -37.789062 C 50.921875 -35.484375 59.792969 -32.144531 59.792969 -22.121094 C 59.792969 -9.792969 48.964844 -5.644531 37.671875 -5.414062 L 37.671875 1.265625 C 57.835938 1.382812 67.167969 -10.367188 67.167969 -22.351562 C 67.167969 -37.328125 54.722656 -41.9375 39.746094 -44.011719 Z M 6.914062 -7.605469 C 15.09375 -1.957031 24.769531 0.921875 35.484375 1.265625 L 35.484375 -5.414062 C 27.1875 -5.644531 17.511719 -8.640625 10.597656 -13.363281 C 10.136719 -13.710938 9.792969 -13.824219 9.445312 -13.824219 C 8.984375 -13.824219 8.757812 -13.480469 8.296875 -12.902344 L 6.453125 -9.90625 C 5.875 -8.757812 5.875 -8.296875 6.914062 -7.605469 Z M 38.019531 -75.230469 C 46.429688 -75.117188 54.378906 -72.003906 61.40625 -67.28125 C 61.867188 -67.050781 62.097656 -66.9375 62.445312 -66.9375 C 63.019531 -66.9375 63.363281 -67.28125 63.710938 -67.972656 L 65.4375 -70.855469 C 65.898438 -71.890625 66.015625 -72.464844 64.976562 -73.15625 C 56.914062 -78.113281 49.195312 -81.566406 38.019531 -81.914062 Z M 38.019531 -75.230469 "/></g></g></g><g fill="#000000" fill-opacity="1"><g transform="translate(510.006139, 115.301791)"><g><path d="M 57.835938 -11.175781 C 57.488281 -11.636719 57.144531 -11.867188 56.796875 -11.867188 C 56.453125 -11.867188 56.105469 -11.636719 55.644531 -11.289062 C 50.230469 -7.144531 42.859375 -5.070312 36.75 -5.070312 C 23.617188 -5.070312 13.019531 -15.667969 13.019531 -28.339844 L 13.019531 -30.183594 C 13.019531 -42.167969 22.121094 -52.882812 34.332031 -53.804688 L 34.332031 -59.910156 C 18.203125 -59.21875 5.644531 -45.277344 5.644531 -29.261719 C 5.644531 -12.441406 19.007812 1.265625 36.40625 1.265625 C 44.816406 1.265625 54.261719 -1.496094 59.5625 -6.796875 C 60.371094 -7.488281 60.371094 -8.179688 59.679688 -9.101562 Z M 64.285156 -28.226562 C 64.285156 -45.046875 53.917969 -59.449219 36.636719 -59.910156 L 36.636719 -53.804688 C 49.195312 -53.113281 56.683594 -42.050781 56.914062 -31.796875 L 15.554688 -31.796875 C 15.09375 -30.414062 15.09375 -27.996094 15.554688 -26.613281 L 62.789062 -26.613281 C 64.054688 -26.613281 64.285156 -27.074219 64.285156 -28.226562 Z M 64.285156 -28.226562 "/></g></g></g><g fill="#000000" fill-opacity="1"><g transform="translate(579.355783, 115.301791)"><g><path d="M 57.835938 -11.175781 C 57.488281 -11.636719 57.144531 -11.867188 56.796875 -11.867188 C 56.453125 -11.867188 56.105469 -11.636719 55.644531 -11.289062 C 50.230469 -7.144531 42.859375 -5.070312 36.75 -5.070312 C 23.617188 -5.070312 13.019531 -15.667969 13.019531 -28.339844 L 13.019531 -30.183594 C 13.019531 -42.167969 22.121094 -52.882812 34.332031 -53.804688 L 34.332031 -59.910156 C 18.203125 -59.21875 5.644531 -45.277344 5.644531 -29.261719 C 5.644531 -12.441406 19.007812 1.265625 36.40625 1.265625 C 44.816406 1.265625 54.261719 -1.496094 59.5625 -6.796875 C 60.371094 -7.488281 60.371094 -8.179688 59.679688 -9.101562 Z M 64.285156 -28.226562 C 64.285156 -45.046875 53.917969 -59.449219 36.636719 -59.910156 L 36.636719 -53.804688 C 49.195312 -53.113281 56.683594 -42.050781 56.914062 -31.796875 L 15.554688 -31.796875 C 15.09375 -30.414062 15.09375 -27.996094 15.554688 -26.613281 L 62.789062 -26.613281 C 64.054688 -26.613281 64.285156 -27.074219 64.285156 -28.226562 Z M 64.285156 -28.226562 "/></g></g></g><g fill="#000000" fill-opacity="1"><g transform="translate(648.705428, 115.301791)"><g><path d="M 32.375 1.265625 C 41.246094 1.265625 48.273438 -2.996094 52.191406 -8.527344 L 52.191406 -18.203125 C 47.695312 -8.527344 40.09375 -5.183594 33.640625 -5.183594 C 20.738281 -5.183594 12.902344 -15.898438 12.902344 -29.378906 C 12.902344 -41.820312 20.738281 -53.34375 33.640625 -53.34375 C 41.476562 -53.34375 48.15625 -48.964844 52.191406 -40.207031 L 52.191406 -49.65625 C 48.273438 -55.414062 41.246094 -59.910156 32.375 -59.910156 C 16.015625 -59.910156 5.761719 -46.199219 5.761719 -29.378906 C 5.761719 -12.558594 16.015625 1.265625 32.375 1.265625 Z M 61.523438 -83.410156 C 61.523438 -84.679688 61.0625 -85.023438 60.023438 -85.023438 L 55.875 -85.023438 C 54.722656 -85.023438 54.378906 -84.5625 54.378906 -83.410156 L 54.378906 -5.070312 L 55.414062 -1.382812 C 55.992188 -0.34375 56.914062 0 57.71875 0 L 60.023438 0 C 61.0625 0 61.523438 -0.34375 61.523438 -1.613281 Z M 61.523438 -83.410156 "/></g></g></g></svg>