<svg width="58" height="58" viewBox="0 0 58 58" fill="none" xmlns="http://www.w3.org/2000/svg">
<g filter="url(#filter0_dd_41_25)">
<rect x="5" y="1" width="48" height="48" rx="12" fill="#D8D8D8"/>
<rect x="5" y="1" width="48" height="48" rx="12" fill="url(#paint0_linear_41_25)"/>
<rect x="5" y="1" width="48" height="48" rx="12" fill="url(#paint1_linear_41_25)"/>
</g>
<rect opacity="0.6" x="21.667" y="16.6666" width="14.6667" height="1.33333" fill="white"/>
<rect opacity="0.6" x="24.333" y="14" width="9.33333" height="1.33333" fill="white"/>
<path fill-rule="evenodd" clip-rule="evenodd" d="M19.6667 19.3334H38.3333C38.7015 19.3334 39 19.6319 39 20V34.6667C39 35.0349 38.7015 35.3334 38.3333 35.3334H19.6667C19.2985 35.3334 19 35.0349 19 34.6667V20C19 19.6319 19.2985 19.3334 19.6667 19.3334ZM33 27.3334C33.3682 27.3334 33.6667 27.0349 33.6667 26.6667V24H32.3333V26H25.6667V24H24.3333V26.6667C24.3333 27.0349 24.6318 27.3334 25 27.3334H33Z" fill="white"/>
<defs>
<filter id="filter0_dd_41_25" x="0" y="0" width="58" height="58" filterUnits="userSpaceOnUse" color-interpolation-filters="sRGB">
<feFlood flood-opacity="0" result="BackgroundImageFix"/>
<feColorMatrix in="SourceAlpha" type="matrix" values="0 0 0 0 0 0 0 0 0 0 0 0 0 0 0 0 0 0 127 0" result="hardAlpha"/>
<feMorphology radius="1" operator="erode" in="SourceAlpha" result="effect1_dropShadow_41_25"/>
<feOffset dy="2"/>
<feGaussianBlur stdDeviation="2"/>
<feColorMatrix type="matrix" values="0 0 0 0 0.0784314 0 0 0 0 0.0784314 0 0 0 0 0.0784314 0 0 0 0.07 0"/>
<feBlend mode="normal" in2="BackgroundImageFix" result="effect1_dropShadow_41_25"/>
<feColorMatrix in="SourceAlpha" type="matrix" values="0 0 0 0 0 0 0 0 0 0 0 0 0 0 0 0 0 0 127 0" result="hardAlpha"/>
<feMorphology radius="1" operator="erode" in="SourceAlpha" result="effect2_dropShadow_41_25"/>
<feOffset dy="4"/>
<feGaussianBlur stdDeviation="3"/>
<feColorMatrix type="matrix" values="0 0 0 0 0.0784314 0 0 0 0 0.0784314 0 0 0 0 0.0784314 0 0 0 0.12 0"/>
<feBlend mode="normal" in2="effect1_dropShadow_41_25" result="effect2_dropShadow_41_25"/>
<feBlend mode="normal" in="SourceGraphic" in2="effect2_dropShadow_41_25" result="shape"/>
</filter>
<linearGradient id="paint0_linear_41_25" x1="-6.50558" y1="59.6114" x2="62.7172" y2="59.6114" gradientUnits="userSpaceOnUse">
<stop stop-color="#FF6690"/>
<stop offset="1" stop-color="#D70B0C"/>
<stop offset="1" stop-color="#D60808"/>
</linearGradient>
<linearGradient id="paint1_linear_41_25" x1="5" y1="49" x2="53" y2="49" gradientUnits="userSpaceOnUse">
<stop stop-color="#3A416F"/>
<stop offset="1" stop-color="#141727"/>
</linearGradient>
</defs>
</svg>
