<svg width="58" height="58" viewBox="0 0 58 58" fill="none" xmlns="http://www.w3.org/2000/svg">
<g filter="url(#filter0_dd_41_24)">
<rect x="5" y="1" width="48" height="48" rx="12" fill="#D8D8D8"/>
<rect x="5" y="1" width="48" height="48" rx="12" fill="url(#paint0_linear_41_24)"/>
<rect x="5" y="1" width="48" height="48" rx="12" fill="url(#paint1_linear_41_24)"/>
</g>
<path opacity="0.603585" d="M39.0003 34H37.1821V15.8182H21.7275V14H38.0912C38.593 14 39.0003 14.4073 39.0003 14.9091V34Z" fill="white"/>
<path fill-rule="evenodd" clip-rule="evenodd" d="M19.9091 17.6364H34.4545C34.9564 17.6364 35.3636 18.0436 35.3636 18.5454V34.9091C35.3636 35.4109 34.9564 35.8182 34.4545 35.8182H19.9091C19.4073 35.8182 19 35.4109 19 34.9091V18.5454C19 18.0436 19.4073 17.6364 19.9091 17.6364ZM22.6364 31.2727H28.0909V29.4545H22.6364V31.2727ZM31.7273 27.6364H22.6364V25.8182H31.7273V27.6364ZM22.6364 24H31.7273V22.1818H22.6364V24Z" fill="white"/>
<defs>
<filter id="filter0_dd_41_24" x="0" y="0" width="58" height="58" filterUnits="userSpaceOnUse" color-interpolation-filters="sRGB">
<feFlood flood-opacity="0" result="BackgroundImageFix"/>
<feColorMatrix in="SourceAlpha" type="matrix" values="0 0 0 0 0 0 0 0 0 0 0 0 0 0 0 0 0 0 127 0" result="hardAlpha"/>
<feMorphology radius="1" operator="erode" in="SourceAlpha" result="effect1_dropShadow_41_24"/>
<feOffset dy="2"/>
<feGaussianBlur stdDeviation="2"/>
<feColorMatrix type="matrix" values="0 0 0 0 0.0784314 0 0 0 0 0.0784314 0 0 0 0 0.0784314 0 0 0 0.07 0"/>
<feBlend mode="normal" in2="BackgroundImageFix" result="effect1_dropShadow_41_24"/>
<feColorMatrix in="SourceAlpha" type="matrix" values="0 0 0 0 0 0 0 0 0 0 0 0 0 0 0 0 0 0 127 0" result="hardAlpha"/>
<feMorphology radius="1" operator="erode" in="SourceAlpha" result="effect2_dropShadow_41_24"/>
<feOffset dy="4"/>
<feGaussianBlur stdDeviation="3"/>
<feColorMatrix type="matrix" values="0 0 0 0 0.0784314 0 0 0 0 0.0784314 0 0 0 0 0.0784314 0 0 0 0.12 0"/>
<feBlend mode="normal" in2="effect1_dropShadow_41_24" result="effect2_dropShadow_41_24"/>
<feBlend mode="normal" in="SourceGraphic" in2="effect2_dropShadow_41_24" result="shape"/>
</filter>
<linearGradient id="paint0_linear_41_24" x1="-6.50558" y1="59.6114" x2="62.7172" y2="59.6114" gradientUnits="userSpaceOnUse">
<stop stop-color="#FF6690"/>
<stop offset="1" stop-color="#D70B0C"/>
<stop offset="1" stop-color="#D60808"/>
</linearGradient>
<linearGradient id="paint1_linear_41_24" x1="5" y1="49" x2="53" y2="49" gradientUnits="userSpaceOnUse">
<stop stop-color="#3A416F"/>
<stop offset="1" stop-color="#141727"/>
</linearGradient>
</defs>
</svg>
