<svg xmlns="http://www.w3.org/2000/svg" xmlns:xlink="http://www.w3.org/1999/xlink" width="956" zoomAndPan="magnify" viewBox="0 0 717 164.249993" height="219" preserveAspectRatio="xMidYMid meet" version="1.0"><defs><g/><clipPath id="ed16cb7db1"><path d="M 9 6 L 168 6 L 168 163.503906 L 9 163.503906 Z M 9 6 " clip-rule="nonzero"/></clipPath></defs><g clip-path="url(#ed16cb7db1)"><path fill="#ec407a" d="M 76.519531 144.386719 C 76.550781 144.035156 76.597656 143.679688 76.613281 143.328125 C 76.964844 137.9375 76.875 131.566406 75.585938 125.300781 L 75.585938 125.257812 C 72.222656 128.480469 68.644531 131.78125 64.773438 135.21875 C 64.652344 127.007812 62.242188 120.359375 57.710938 115.832031 L 57.710938 115.816406 C 57.695312 115.816406 57.695312 115.816406 57.695312 115.816406 C 53.167969 111.285156 46.515625 108.875 38.300781 108.753906 C 41.742188 104.882812 45.042969 101.308594 48.269531 97.945312 L 48.222656 97.945312 C 41.957031 96.65625 35.585938 96.546875 30.179688 96.914062 C 29.84375 96.929688 29.488281 96.976562 29.136719 97.007812 C 45.335938 80.828125 59.214844 81.488281 64.160156 82.40625 C 103.851562 46.34375 122.539062 50.996094 122.539062 50.996094 C 122.539062 50.996094 127.195312 69.679688 91.125 109.367188 C 92.046875 114.308594 92.707031 128.1875 76.519531 144.386719 Z M 139.617188 25.296875 C 110.300781 0.117188 66.355469 0.0429688 36.980469 25.144531 C 7.820312 50.042969 1.632812 90.714844 18.386719 122.339844 C 23.46875 131.949219 37.058594 132.609375 43.339844 123.722656 L 43.355469 123.707031 L 35.414062 115.785156 C 35.429688 115.769531 35.414062 115.769531 35.429688 115.769531 C 40.714844 115.355469 48.253906 115.785156 52.996094 120.527344 C 57.742188 125.273438 58.171875 132.808594 57.757812 138.089844 C 57.757812 138.089844 57.742188 138.089844 57.742188 138.105469 L 49.820312 130.167969 C 40.851562 136.511719 41.679688 150.144531 51.402344 155.238281 C 81.21875 170.929688 119.039062 166.246094 144.082031 141.207031 C 176.328125 108.96875 174.839844 55.585938 139.617188 25.296875 " fill-opacity="1" fill-rule="nonzero"/></g><path fill="#ec407a" d="M 95.5 86.84375 C 93.074219 89.269531 89.128906 89.269531 86.6875 86.84375 C 84.261719 84.402344 84.261719 80.457031 86.6875 78.03125 C 89.128906 75.589844 93.074219 75.589844 95.5 78.03125 C 97.941406 80.457031 97.941406 84.402344 95.5 86.84375 " fill-opacity="1" fill-rule="nonzero"/><g fill="#ffffff" fill-opacity="1"><g transform="translate(209.658554, 115.262807)"><g><path d="M 8.527344 0 C 9.5625 0 10.023438 -0.34375 10.601562 -1.613281 L 40.785156 -69.472656 L 40.902344 -69.472656 L 57.953125 -31.222656 L 65.441406 -31.222656 L 42.167969 -81.339844 C 41.824219 -82.148438 41.476562 -82.722656 41.015625 -82.722656 L 40.671875 -82.722656 C 40.09375 -82.722656 39.75 -82.148438 39.402344 -81.339844 L 2.1875 -1.613281 C 1.84375 -0.691406 2.1875 0 3.109375 0 Z M 25.347656 -29.035156 L 22.351562 -22.464844 L 61.523438 -22.464844 L 70.972656 -1.613281 C 71.664062 -0.34375 72.007812 0 73.046875 0 L 78.34375 0 C 79.382812 0 79.84375 -0.691406 79.382812 -1.613281 L 66.59375 -29.035156 Z M 25.347656 -29.035156 "/></g></g></g><g fill="#ffffff" fill-opacity="1"><g transform="translate(290.880464, 115.262807)"><g><path d="M 40.441406 -59.910156 C 31.570312 -59.910156 24.539062 -55.648438 20.625 -50.117188 L 20.625 -40.324219 C 25.117188 -50.117188 32.835938 -53.460938 39.171875 -53.460938 C 52.078125 -53.460938 60.027344 -42.746094 60.027344 -29.265625 C 60.027344 -16.820312 52.078125 -5.300781 39.171875 -5.300781 C 31.339844 -5.300781 24.65625 -9.679688 20.625 -18.433594 L 20.625 -8.988281 C 24.539062 -3.226562 31.570312 1.265625 40.441406 1.265625 C 56.800781 1.265625 67.054688 -12.441406 67.054688 -29.265625 C 67.054688 -45.96875 56.800781 -59.910156 40.441406 -59.910156 Z M 16.9375 23.503906 C 18.089844 23.503906 18.433594 23.042969 18.433594 21.890625 L 18.433594 -53.574219 L 17.511719 -57.261719 C 16.820312 -58.183594 16.015625 -58.644531 15.09375 -58.644531 L 12.789062 -58.644531 C 11.75 -58.644531 11.289062 -58.296875 11.289062 -57.03125 L 11.289062 21.890625 C 11.289062 23.15625 11.75 23.503906 12.789062 23.503906 Z M 16.9375 23.503906 "/></g></g></g><g fill="#ffffff" fill-opacity="1"><g transform="translate(363.692165, 115.262807)"><g><path d="M 40.441406 -59.910156 C 31.570312 -59.910156 24.539062 -55.648438 20.625 -50.117188 L 20.625 -40.324219 C 25.117188 -50.117188 32.835938 -53.460938 39.171875 -53.460938 C 52.078125 -53.460938 60.027344 -42.746094 60.027344 -29.265625 C 60.027344 -16.820312 52.078125 -5.300781 39.171875 -5.300781 C 31.339844 -5.300781 24.65625 -9.679688 20.625 -18.433594 L 20.625 -8.988281 C 24.539062 -3.226562 31.570312 1.265625 40.441406 1.265625 C 56.800781 1.265625 67.054688 -12.441406 67.054688 -29.265625 C 67.054688 -45.96875 56.800781 -59.910156 40.441406 -59.910156 Z M 16.9375 23.503906 C 18.089844 23.503906 18.433594 23.042969 18.433594 21.890625 L 18.433594 -53.574219 L 17.511719 -57.261719 C 16.820312 -58.183594 16.015625 -58.644531 15.09375 -58.644531 L 12.789062 -58.644531 C 11.75 -58.644531 11.289062 -58.296875 11.289062 -57.03125 L 11.289062 21.890625 C 11.289062 23.15625 11.75 23.503906 12.789062 23.503906 Z M 16.9375 23.503906 "/></g></g></g><g fill="#ffffff" fill-opacity="1"><g transform="translate(436.503877, 115.262807)"><g><path d="M 39.75 -44.011719 C 26.730469 -45.738281 15.09375 -48.273438 15.09375 -58.414062 C 15.09375 -64.289062 19.125 -74.660156 35.832031 -75.121094 L 35.832031 -81.917969 C 14.054688 -81.6875 7.71875 -66.476562 7.71875 -58.183594 C 7.71875 -43.207031 22.582031 -39.519531 35.140625 -37.789062 C 50.925781 -35.484375 59.796875 -32.144531 59.796875 -22.121094 C 59.796875 -9.792969 48.964844 -5.644531 37.675781 -5.414062 L 37.675781 1.265625 C 57.835938 1.382812 67.167969 -10.371094 67.167969 -22.351562 C 67.167969 -37.328125 54.726562 -41.9375 39.75 -44.011719 Z M 6.914062 -7.605469 C 15.09375 -1.957031 24.769531 0.921875 35.484375 1.265625 L 35.484375 -5.414062 C 27.191406 -5.644531 17.511719 -8.640625 10.601562 -13.363281 C 10.140625 -13.710938 9.792969 -13.824219 9.449219 -13.824219 C 8.988281 -13.824219 8.757812 -13.480469 8.296875 -12.902344 L 6.453125 -9.910156 C 5.875 -8.757812 5.875 -8.296875 6.914062 -7.605469 Z M 38.019531 -75.234375 C 46.429688 -75.121094 54.382812 -72.007812 61.410156 -67.285156 C 61.871094 -67.054688 62.101562 -66.9375 62.445312 -66.9375 C 63.023438 -66.9375 63.367188 -67.285156 63.714844 -67.976562 L 65.441406 -70.855469 C 65.902344 -71.894531 66.015625 -72.46875 64.980469 -73.160156 C 56.914062 -78.113281 49.195312 -81.570312 38.019531 -81.917969 Z M 38.019531 -75.234375 "/></g></g></g><g fill="#ffffff" fill-opacity="1"><g transform="translate(510.006826, 115.262807)"><g><path d="M 57.835938 -11.175781 C 57.492188 -11.636719 57.144531 -11.867188 56.800781 -11.867188 C 56.453125 -11.867188 56.109375 -11.636719 55.648438 -11.289062 C 50.234375 -7.144531 42.859375 -5.070312 36.753906 -5.070312 C 23.617188 -5.070312 13.019531 -15.667969 13.019531 -28.34375 L 13.019531 -30.1875 C 13.019531 -42.167969 22.121094 -52.882812 34.332031 -53.804688 L 34.332031 -59.910156 C 18.203125 -59.21875 5.644531 -45.277344 5.644531 -29.265625 C 5.644531 -12.441406 19.011719 1.265625 36.40625 1.265625 C 44.816406 1.265625 54.265625 -1.496094 59.566406 -6.796875 C 60.371094 -7.488281 60.371094 -8.179688 59.679688 -9.101562 Z M 64.289062 -28.226562 C 64.289062 -45.046875 53.921875 -59.449219 36.636719 -59.910156 L 36.636719 -53.804688 C 49.195312 -53.113281 56.683594 -42.054688 56.914062 -31.800781 L 15.554688 -31.800781 C 15.09375 -30.417969 15.09375 -27.996094 15.554688 -26.613281 L 62.792969 -26.613281 C 64.058594 -26.613281 64.289062 -27.074219 64.289062 -28.226562 Z M 64.289062 -28.226562 "/></g></g></g><g fill="#ffffff" fill-opacity="1"><g transform="translate(579.362286, 115.262807)"><g><path d="M 57.835938 -11.175781 C 57.492188 -11.636719 57.144531 -11.867188 56.800781 -11.867188 C 56.453125 -11.867188 56.109375 -11.636719 55.648438 -11.289062 C 50.234375 -7.144531 42.859375 -5.070312 36.753906 -5.070312 C 23.617188 -5.070312 13.019531 -15.667969 13.019531 -28.34375 L 13.019531 -30.1875 C 13.019531 -42.167969 22.121094 -52.882812 34.332031 -53.804688 L 34.332031 -59.910156 C 18.203125 -59.21875 5.644531 -45.277344 5.644531 -29.265625 C 5.644531 -12.441406 19.011719 1.265625 36.40625 1.265625 C 44.816406 1.265625 54.265625 -1.496094 59.566406 -6.796875 C 60.371094 -7.488281 60.371094 -8.179688 59.679688 -9.101562 Z M 64.289062 -28.226562 C 64.289062 -45.046875 53.921875 -59.449219 36.636719 -59.910156 L 36.636719 -53.804688 C 49.195312 -53.113281 56.683594 -42.054688 56.914062 -31.800781 L 15.554688 -31.800781 C 15.09375 -30.417969 15.09375 -27.996094 15.554688 -26.613281 L 62.792969 -26.613281 C 64.058594 -26.613281 64.289062 -27.074219 64.289062 -28.226562 Z M 64.289062 -28.226562 "/></g></g></g><g fill="#ffffff" fill-opacity="1"><g transform="translate(648.717724, 115.262807)"><g><path d="M 32.375 1.265625 C 41.246094 1.265625 48.273438 -2.996094 52.191406 -8.527344 L 52.191406 -18.203125 C 47.699219 -8.527344 40.09375 -5.183594 33.640625 -5.183594 C 20.738281 -5.183594 12.902344 -15.898438 12.902344 -29.378906 C 12.902344 -41.824219 20.738281 -53.34375 33.640625 -53.34375 C 41.476562 -53.34375 48.160156 -48.964844 52.191406 -40.210938 L 52.191406 -49.65625 C 48.273438 -55.417969 41.246094 -59.910156 32.375 -59.910156 C 16.015625 -59.910156 5.761719 -46.199219 5.761719 -29.378906 C 5.761719 -12.558594 16.015625 1.265625 32.375 1.265625 Z M 61.523438 -83.414062 C 61.523438 -84.683594 61.0625 -85.027344 60.027344 -85.027344 L 55.878906 -85.027344 C 54.726562 -85.027344 54.382812 -84.566406 54.382812 -83.414062 L 54.382812 -5.070312 L 55.417969 -1.382812 C 55.992188 -0.34375 56.914062 0 57.722656 0 L 60.027344 0 C 61.0625 0 61.523438 -0.34375 61.523438 -1.613281 Z M 61.523438 -83.414062 "/></g></g></g></svg>