<svg xmlns="http://www.w3.org/2000/svg" xmlns:xlink="http://www.w3.org/1999/xlink" width="956" zoomAndPan="magnify" viewBox="0 0 717 164.249993" height="219" preserveAspectRatio="xMidYMid meet" version="1.0"><defs><g/><clipPath id="75d42331c2"><path d="M 5.921875 2.027344 L 165.691406 2.027344 L 165.691406 161.796875 L 5.921875 161.796875 Z M 5.921875 2.027344 " clip-rule="nonzero"/></clipPath><clipPath id="8df2b87a8c"><path d="M 92.859375 161.179688 L 126.695312 105.101562 C 126.855469 104.835938 126.914062 104.519531 126.855469 104.214844 L 124.121094 89.527344 C 143.859375 67.691406 158.890625 46.617188 163.679688 24.527344 C 163.734375 24.390625 163.769531 24.25 163.777344 24.097656 C 165.179688 17.445312 165.664062 10.703125 165.050781 3.816406 C 164.996094 3.203125 164.511719 2.71875 163.902344 2.664062 C 157.015625 2.050781 150.269531 2.539062 143.617188 3.941406 C 143.472656 3.945312 143.335938 3.980469 143.203125 4.035156 C 121.109375 8.820312 100.03125 23.855469 78.191406 43.59375 L 63.5 40.863281 C 63.195312 40.804688 62.882812 40.863281 62.617188 41.019531 L 6.535156 74.855469 C 6.15625 75.085938 5.925781 75.5 5.925781 75.941406 C 5.925781 75.972656 5.925781 76.003906 5.929688 76.039062 C 5.964844 76.515625 6.269531 76.929688 6.710938 77.113281 L 38.1875 90.015625 L 34.515625 93.6875 C 34.269531 93.933594 34.144531 94.257812 34.144531 94.582031 C 34.144531 94.90625 34.269531 95.230469 34.515625 95.476562 L 50.425781 111.382812 L 46.527344 115.28125 C 46.28125 115.527344 46.15625 115.851562 46.15625 116.171875 C 46.15625 116.496094 46.28125 116.820312 46.527344 117.066406 L 50.648438 121.191406 C 51.144531 121.683594 51.941406 121.683594 52.4375 121.191406 L 56.335938 117.292969 L 72.242188 133.199219 C 72.734375 133.695312 73.535156 133.695312 74.03125 133.199219 L 77.703125 129.527344 L 90.605469 161.003906 C 90.789062 161.449219 91.203125 161.75 91.679688 161.789062 C 92.15625 161.824219 92.613281 161.589844 92.859375 161.179688 Z M 103.625 70.003906 C 104.117188 69.507812 104.117188 68.707031 103.625 68.214844 L 99.503906 64.09375 C 99.007812 63.597656 98.207031 63.597656 97.714844 64.09375 L 57.226562 104.578125 L 41.703125 89.054688 L 41.792969 85.367188 C 41.84375 83.429688 42.625 81.609375 43.996094 80.238281 C 78.6875 45.539062 109.5 14.753906 142.121094 6.890625 C 142.097656 7.175781 142.085938 7.476562 142.085938 7.8125 C 142.085938 10.710938 143.003906 15.332031 147.695312 20.023438 C 152.921875 25.25 158.058594 25.792969 160.824219 25.601562 C 152.960938 58.21875 122.175781 89.027344 87.480469 123.722656 C 86.105469 125.09375 84.285156 125.875 82.351562 125.921875 L 78.664062 126.011719 L 63.136719 110.488281 Z M 162.617188 5.101562 C 163.054688 11.152344 162.601562 17.105469 161.410156 22.996094 C 159.597656 23.269531 154.648438 23.402344 149.480469 18.234375 C 144.300781 13.054688 144.4375 8.132812 144.71875 6.308594 C 150.609375 5.113281 156.5625 4.660156 162.617188 5.101562 Z M 10 75.726562 L 63.511719 43.4375 L 75.84375 45.730469 C 64.910156 55.75 53.773438 66.882812 42.207031 78.449219 C 40.375 80.285156 39.332031 82.71875 39.269531 85.304688 L 39.210938 87.695312 Z M 37.199219 94.582031 L 40.425781 91.351562 L 55.441406 106.367188 L 52.210938 109.59375 Z M 49.210938 116.171875 L 98.609375 66.777344 L 100.941406 69.109375 L 51.542969 118.507812 Z M 58.121094 115.503906 L 61.351562 112.277344 L 76.363281 127.289062 L 73.132812 130.519531 Z M 80.019531 128.507812 L 82.414062 128.449219 C 84.996094 128.386719 87.433594 127.34375 89.265625 125.507812 C 100.835938 113.945312 111.964844 102.808594 121.984375 91.875 L 124.277344 104.207031 L 91.992188 157.71875 Z M 144.363281 42.054688 C 144.363281 37.058594 142.417969 32.363281 138.882812 28.832031 C 135.351562 25.300781 130.660156 23.355469 125.664062 23.355469 C 120.667969 23.355469 115.972656 25.300781 112.441406 28.832031 C 108.796875 32.476562 106.972656 37.265625 106.972656 42.054688 C 106.972656 46.839844 108.796875 51.628906 112.441406 55.273438 C 119.730469 62.566406 131.59375 62.566406 138.882812 55.273438 C 142.417969 51.742188 144.363281 47.046875 144.363281 42.054688 Z M 114.230469 53.488281 C 107.925781 47.179688 107.925781 36.921875 114.230469 30.621094 C 117.285156 27.566406 121.34375 25.882812 125.664062 25.882812 C 129.980469 25.882812 134.042969 27.566406 137.097656 30.621094 C 140.148438 33.671875 141.832031 37.734375 141.832031 42.054688 C 141.832031 46.371094 140.148438 50.433594 137.097656 53.488281 C 130.792969 59.792969 120.535156 59.792969 114.230469 53.488281 Z M 135.179688 32.535156 C 129.933594 27.289062 121.394531 27.289062 116.144531 32.535156 C 113.523438 35.160156 112.210938 38.605469 112.210938 42.054688 C 112.210938 45.5 113.523438 48.945312 116.144531 51.570312 C 121.394531 56.816406 129.933594 56.816406 135.179688 51.570312 C 140.429688 46.324219 140.429688 37.785156 135.179688 32.535156 Z M 117.9375 49.78125 C 113.675781 45.519531 113.675781 38.585938 117.9375 34.324219 C 122.199219 30.066406 129.128906 30.066406 133.390625 34.324219 C 135.523438 36.457031 136.585938 39.253906 136.585938 42.054688 C 136.585938 44.851562 135.523438 47.652344 133.390625 49.78125 C 129.128906 54.042969 122.195312 54.042969 117.9375 49.78125 Z M 117.9375 49.78125 " clip-rule="nonzero"/></clipPath></defs><g clip-path="url(#75d42331c2)"><g clip-path="url(#8df2b87a8c)"><path fill="#ec407a" d="M 165.664062 2.050781 L 5.925781 2.050781 L 5.925781 161.796875 L 165.664062 161.796875 Z M 165.664062 2.050781 " fill-opacity="1" fill-rule="nonzero"/></g></g><g fill="#ffffff" fill-opacity="1"><g transform="translate(205.164077, 111.831726)"><g><path d="M 8.664062 0 C 9.714844 0 10.183594 -0.351562 10.769531 -1.640625 L 41.441406 -70.589844 L 41.558594 -70.589844 L 58.882812 -31.726562 L 66.492188 -31.726562 L 42.847656 -82.648438 C 42.496094 -83.46875 42.144531 -84.054688 41.675781 -84.054688 L 41.324219 -84.054688 C 40.738281 -84.054688 40.386719 -83.46875 40.035156 -82.648438 L 2.222656 -1.640625 C 1.875 -0.703125 2.222656 0 3.160156 0 Z M 25.753906 -29.5 L 22.710938 -22.828125 L 62.511719 -22.828125 L 72.113281 -1.640625 C 72.816406 -0.351562 73.164062 0 74.21875 0 L 79.605469 0 C 80.65625 0 81.125 -0.703125 80.65625 -1.640625 L 67.664062 -29.5 Z M 25.753906 -29.5 "/></g></g></g><g fill="#ffffff" fill-opacity="1"><g transform="translate(287.693603, 111.831726)"><g><path d="M 41.089844 -60.875 C 32.074219 -60.875 24.933594 -56.542969 20.953125 -50.921875 L 20.953125 -40.972656 C 25.519531 -50.921875 33.363281 -54.320312 39.800781 -54.320312 C 52.914062 -54.320312 60.992188 -43.429688 60.992188 -29.734375 C 60.992188 -17.089844 52.914062 -5.386719 39.800781 -5.386719 C 31.84375 -5.386719 25.050781 -9.832031 20.953125 -18.730469 L 20.953125 -9.132812 C 24.933594 -3.277344 32.074219 1.289062 41.089844 1.289062 C 57.714844 1.289062 68.132812 -12.644531 68.132812 -29.734375 C 68.132812 -46.710938 57.714844 -60.875 41.089844 -60.875 Z M 17.207031 23.882812 C 18.378906 23.882812 18.730469 23.414062 18.730469 22.242188 L 18.730469 -54.433594 L 17.792969 -58.179688 C 17.089844 -59.117188 16.273438 -59.585938 15.335938 -59.585938 L 12.996094 -59.585938 C 11.941406 -59.585938 11.472656 -59.234375 11.472656 -57.949219 L 11.472656 22.242188 C 11.472656 23.53125 11.941406 23.882812 12.996094 23.882812 Z M 17.207031 23.882812 "/></g></g></g><g fill="#ffffff" fill-opacity="1"><g transform="translate(361.677514, 111.831726)"><g><path d="M 41.089844 -60.875 C 32.074219 -60.875 24.933594 -56.542969 20.953125 -50.921875 L 20.953125 -40.972656 C 25.519531 -50.921875 33.363281 -54.320312 39.800781 -54.320312 C 52.914062 -54.320312 60.992188 -43.429688 60.992188 -29.734375 C 60.992188 -17.089844 52.914062 -5.386719 39.800781 -5.386719 C 31.84375 -5.386719 25.050781 -9.832031 20.953125 -18.730469 L 20.953125 -9.132812 C 24.933594 -3.277344 32.074219 1.289062 41.089844 1.289062 C 57.714844 1.289062 68.132812 -12.644531 68.132812 -29.734375 C 68.132812 -46.710938 57.714844 -60.875 41.089844 -60.875 Z M 17.207031 23.882812 C 18.378906 23.882812 18.730469 23.414062 18.730469 22.242188 L 18.730469 -54.433594 L 17.792969 -58.179688 C 17.089844 -59.117188 16.273438 -59.585938 15.335938 -59.585938 L 12.996094 -59.585938 C 11.941406 -59.585938 11.472656 -59.234375 11.472656 -57.949219 L 11.472656 22.242188 C 11.472656 23.53125 11.941406 23.882812 12.996094 23.882812 Z M 17.207031 23.882812 "/></g></g></g><g fill="#ffffff" fill-opacity="1"><g transform="translate(435.661424, 111.831726)"><g><path d="M 40.386719 -44.71875 C 27.160156 -46.476562 15.335938 -49.050781 15.335938 -59.351562 C 15.335938 -65.324219 19.433594 -75.859375 36.40625 -76.328125 L 36.40625 -83.234375 C 14.28125 -83 7.84375 -67.546875 7.84375 -59.117188 C 7.84375 -43.898438 22.945312 -40.152344 35.703125 -38.398438 C 51.742188 -36.054688 60.757812 -32.660156 60.757812 -22.476562 C 60.757812 -9.949219 49.753906 -5.734375 38.28125 -5.503906 L 38.28125 1.289062 C 58.765625 1.40625 68.25 -10.535156 68.25 -22.710938 C 68.25 -37.929688 55.605469 -42.613281 40.386719 -44.71875 Z M 7.023438 -7.726562 C 15.335938 -1.988281 25.167969 0.9375 36.054688 1.289062 L 36.054688 -5.503906 C 27.628906 -5.734375 17.792969 -8.78125 10.769531 -13.578125 C 10.300781 -13.929688 9.949219 -14.046875 9.597656 -14.046875 C 9.132812 -14.046875 8.898438 -13.695312 8.429688 -13.113281 L 6.554688 -10.066406 C 5.96875 -8.898438 5.96875 -8.429688 7.023438 -7.726562 Z M 38.632812 -76.445312 C 47.175781 -76.328125 55.253906 -73.164062 62.394531 -68.367188 C 62.863281 -68.132812 63.097656 -68.015625 63.449219 -68.015625 C 64.035156 -68.015625 64.386719 -68.367188 64.738281 -69.070312 L 66.492188 -71.996094 C 66.960938 -73.050781 67.078125 -73.632812 66.023438 -74.335938 C 57.832031 -79.371094 49.988281 -82.882812 38.632812 -83.234375 Z M 38.632812 -76.445312 "/></g></g></g><g fill="#ffffff" fill-opacity="1"><g transform="translate(510.347713, 111.831726)"><g><path d="M 58.765625 -11.355469 C 58.414062 -11.824219 58.066406 -12.058594 57.714844 -12.058594 C 57.363281 -12.058594 57.011719 -11.824219 56.542969 -11.472656 C 51.039062 -7.257812 43.546875 -5.152344 37.34375 -5.152344 C 24 -5.152344 13.226562 -15.921875 13.226562 -28.796875 L 13.226562 -30.671875 C 13.226562 -42.847656 22.476562 -53.734375 34.886719 -54.667969 L 34.886719 -60.875 C 18.496094 -60.171875 5.734375 -46.007812 5.734375 -29.734375 C 5.734375 -12.644531 19.316406 1.289062 36.992188 1.289062 C 45.539062 1.289062 55.136719 -1.523438 60.523438 -6.90625 C 61.34375 -7.609375 61.34375 -8.3125 60.640625 -9.25 Z M 65.324219 -28.679688 C 65.324219 -45.773438 54.785156 -60.40625 37.226562 -60.875 L 37.226562 -54.667969 C 49.988281 -53.96875 57.597656 -42.730469 57.832031 -32.308594 L 15.804688 -32.308594 C 15.335938 -30.90625 15.335938 -28.445312 15.804688 -27.042969 L 63.800781 -27.042969 C 65.089844 -27.042969 65.324219 -27.511719 65.324219 -28.679688 Z M 65.324219 -28.679688 "/></g></g></g><g fill="#ffffff" fill-opacity="1"><g transform="translate(580.819733, 111.831726)"><g><path d="M 58.765625 -11.355469 C 58.414062 -11.824219 58.066406 -12.058594 57.714844 -12.058594 C 57.363281 -12.058594 57.011719 -11.824219 56.542969 -11.472656 C 51.039062 -7.257812 43.546875 -5.152344 37.34375 -5.152344 C 24 -5.152344 13.226562 -15.921875 13.226562 -28.796875 L 13.226562 -30.671875 C 13.226562 -42.847656 22.476562 -53.734375 34.886719 -54.667969 L 34.886719 -60.875 C 18.496094 -60.171875 5.734375 -46.007812 5.734375 -29.734375 C 5.734375 -12.644531 19.316406 1.289062 36.992188 1.289062 C 45.539062 1.289062 55.136719 -1.523438 60.523438 -6.90625 C 61.34375 -7.609375 61.34375 -8.3125 60.640625 -9.25 Z M 65.324219 -28.679688 C 65.324219 -45.773438 54.785156 -60.40625 37.226562 -60.875 L 37.226562 -54.667969 C 49.988281 -53.96875 57.597656 -42.730469 57.832031 -32.308594 L 15.804688 -32.308594 C 15.335938 -30.90625 15.335938 -28.445312 15.804688 -27.042969 L 63.800781 -27.042969 C 65.089844 -27.042969 65.324219 -27.511719 65.324219 -28.679688 Z M 65.324219 -28.679688 "/></g></g></g><g fill="#ffffff" fill-opacity="1"><g transform="translate(651.291753, 111.831726)"><g><path d="M 32.894531 1.289062 C 41.910156 1.289062 49.050781 -3.042969 53.03125 -8.664062 L 53.03125 -18.496094 C 48.464844 -8.664062 40.738281 -5.269531 34.183594 -5.269531 C 21.070312 -5.269531 13.113281 -16.15625 13.113281 -29.851562 C 13.113281 -42.496094 21.070312 -54.203125 34.183594 -54.203125 C 42.144531 -54.203125 48.933594 -49.753906 53.03125 -40.855469 L 53.03125 -50.457031 C 49.050781 -56.308594 41.910156 -60.875 32.894531 -60.875 C 16.273438 -60.875 5.851562 -46.941406 5.851562 -29.851562 C 5.851562 -12.761719 16.273438 1.289062 32.894531 1.289062 Z M 62.511719 -84.753906 C 62.511719 -86.042969 62.042969 -86.394531 60.992188 -86.394531 L 56.777344 -86.394531 C 55.605469 -86.394531 55.253906 -85.925781 55.253906 -84.753906 L 55.253906 -5.152344 L 56.308594 -1.40625 C 56.894531 -0.351562 57.832031 0 58.648438 0 L 60.992188 0 C 62.042969 0 62.511719 -0.351562 62.511719 -1.640625 Z M 62.511719 -84.753906 "/></g></g></g></svg>