<svg xmlns="http://www.w3.org/2000/svg" xmlns:xlink="http://www.w3.org/1999/xlink" width="956" zoomAndPan="magnify" viewBox="0 0 717 164.249993" height="219" preserveAspectRatio="xMidYMid meet" version="1.0"><defs><g/><clipPath id="86081e1657"><path d="M 286.238281 16.351562 L 368.363281 16.351562 L 368.363281 124.566406 L 286.238281 124.566406 Z M 286.238281 16.351562 " clip-rule="nonzero"/></clipPath></defs><g clip-path="url(#86081e1657)"><path fill="#ec407a" d="M 349.4375 76.972656 L 349.4375 62.964844 C 349.4375 53.652344 347.058594 44.417969 342.566406 36.25 L 333.734375 20.199219 C 332.433594 17.832031 329.945312 16.363281 327.238281 16.363281 C 327.234375 16.363281 327.230469 16.363281 327.222656 16.363281 C 324.511719 16.367188 322.019531 17.847656 320.726562 20.222656 L 311.941406 36.328125 C 307.511719 44.449219 305.171875 53.621094 305.171875 62.867188 L 305.171875 76.976562 C 294.480469 78.523438 286.238281 87.714844 286.238281 98.789062 L 286.238281 111.882812 C 286.238281 118.84375 291.921875 124.503906 298.90625 124.503906 C 305.875 124.503906 311.550781 118.867188 311.574219 111.929688 C 311.574219 111.914062 311.578125 111.902344 311.578125 111.882812 L 311.578125 92.167969 L 324.515625 114.878906 C 324.59375 115.011719 324.675781 115.132812 324.765625 115.25 C 324.773438 115.261719 324.78125 115.269531 324.789062 115.277344 C 324.902344 115.417969 325.023438 115.546875 325.15625 115.664062 C 325.1875 115.691406 325.222656 115.722656 325.253906 115.75 C 325.402344 115.875 325.5625 115.988281 325.730469 116.082031 C 325.730469 116.082031 325.730469 116.085938 325.734375 116.085938 C 325.773438 116.109375 325.816406 116.125 325.855469 116.144531 C 325.933594 116.183594 326.015625 116.226562 326.097656 116.261719 C 326.191406 116.300781 326.289062 116.328125 326.382812 116.359375 C 326.417969 116.371094 326.453125 116.382812 326.484375 116.390625 C 326.617188 116.425781 326.75 116.453125 326.886719 116.472656 C 327.023438 116.492188 327.164062 116.5 327.296875 116.5 C 327.296875 116.5 327.300781 116.5 327.300781 116.5 C 327.574219 116.5 327.851562 116.464844 328.121094 116.390625 C 328.136719 116.386719 328.15625 116.378906 328.175781 116.375 C 328.289062 116.34375 328.398438 116.308594 328.507812 116.261719 C 328.625 116.214844 328.738281 116.160156 328.847656 116.097656 C 328.859375 116.089844 328.867188 116.089844 328.878906 116.082031 C 329.046875 115.988281 329.203125 115.871094 329.351562 115.746094 C 329.386719 115.71875 329.421875 115.6875 329.457031 115.660156 C 329.582031 115.542969 329.703125 115.417969 329.8125 115.277344 C 329.824219 115.265625 329.835938 115.257812 329.84375 115.246094 C 329.933594 115.128906 330.015625 115.003906 330.089844 114.875 L 343.023438 91.976562 L 343.023438 111.894531 C 343.023438 118.855469 348.707031 124.515625 355.695312 124.515625 C 362.679688 124.515625 368.363281 118.851562 368.363281 111.894531 L 368.363281 98.800781 C 368.363281 87.714844 360.125 78.523438 349.4375 76.972656 Z M 305.171875 108.695312 L 305.171875 111.886719 C 305.171875 115.328125 302.359375 118.125 298.90625 118.125 C 295.457031 118.125 292.644531 115.328125 292.644531 111.886719 L 292.644531 98.792969 C 292.644531 91.246094 298.03125 84.929688 305.171875 83.453125 Z M 327.292969 106.816406 L 313.457031 82.53125 C 319.269531 81.160156 324.199219 77.496094 327.222656 72.546875 C 330.25 77.5 335.1875 81.164062 341.007812 82.53125 Z M 343.03125 76.441406 C 335.855469 75.027344 330.425781 68.710938 330.425781 61.15625 L 330.425781 53.046875 C 330.425781 51.285156 328.992188 49.855469 327.222656 49.855469 C 325.453125 49.855469 324.019531 51.285156 324.019531 53.046875 L 324.019531 61.15625 C 324.019531 68.65625 318.675781 74.933594 311.582031 76.410156 L 311.582031 62.867188 C 311.582031 54.6875 313.652344 46.5625 317.574219 39.378906 L 326.359375 23.273438 C 326.605469 22.820312 327.019531 22.75 327.238281 22.75 C 327.238281 22.75 327.242188 22.75 327.242188 22.75 C 327.464844 22.75 327.875 22.820312 328.121094 23.269531 L 336.953125 39.324219 C 340.933594 46.550781 343.035156 54.726562 343.035156 62.96875 L 343.035156 76.441406 Z M 361.957031 108.695312 L 361.957031 111.886719 C 361.957031 115.328125 359.148438 118.125 355.699219 118.125 C 352.246094 118.125 349.4375 115.328125 349.4375 111.886719 L 349.4375 83.453125 C 356.578125 84.929688 361.960938 91.242188 361.960938 98.789062 L 361.960938 108.695312 Z M 361.957031 108.695312 " fill-opacity="1" fill-rule="nonzero"/></g><g fill="#000000" fill-opacity="1"><g transform="translate(271.140282, 153.872374)"><g><path d="M 2.171875 0 C 2.457031 0 2.5625 -0.101562 2.71875 -0.414062 L 9.238281 -15.007812 L 9.265625 -15.007812 L 12.835938 -7.0625 L 14.851562 -7.0625 L 9.601562 -18.191406 C 9.496094 -18.398438 9.417969 -18.554688 9.289062 -18.554688 L 9.210938 -18.554688 C 9.058594 -18.554688 9.003906 -18.398438 8.875 -18.191406 L 0.441406 -0.414062 C 0.335938 -0.179688 0.441406 0 0.671875 0 Z M 6.03125 -6.574219 L 5.203125 -4.8125 L 13.765625 -4.8125 L 15.785156 -0.414062 C 15.941406 -0.101562 16.042969 0 16.300781 0 L 17.804688 0 C 18.0625 0 18.164062 -0.179688 18.0625 -0.414062 L 15.113281 -6.574219 Z M 6.03125 -6.574219 "/></g></g></g><g fill="#000000" fill-opacity="1"><g transform="translate(289.044982, 153.872374)"><g><path d="M 9.160156 -13.457031 C 7.296875 -13.457031 5.746094 -12.574219 4.863281 -11.4375 L 4.863281 -8.980469 C 5.796875 -11.023438 7.453125 -11.722656 8.796875 -11.722656 C 11.488281 -11.722656 13.222656 -9.445312 13.222656 -6.574219 C 13.222656 -3.90625 11.488281 -1.476562 8.796875 -1.476562 C 7.140625 -1.476562 5.71875 -2.40625 4.863281 -4.21875 L 4.863281 -1.890625 C 5.71875 -0.648438 7.269531 0.285156 9.160156 0.285156 C 12.78125 0.285156 15.136719 -2.792969 15.136719 -6.574219 C 15.136719 -10.324219 12.78125 -13.457031 9.160156 -13.457031 Z M 3.984375 5.277344 C 4.269531 5.277344 4.375 5.175781 4.375 4.863281 L 4.375 -12.03125 L 4.089844 -12.835938 C 3.90625 -13.066406 3.675781 -13.171875 3.441406 -13.171875 L 2.820312 -13.171875 C 2.535156 -13.171875 2.433594 -13.066406 2.433594 -12.757812 L 2.433594 4.863281 C 2.433594 5.175781 2.535156 5.277344 2.820312 5.277344 Z M 3.984375 5.277344 "/></g></g></g><g fill="#000000" fill-opacity="1"><g transform="translate(304.905624, 153.872374)"><g><path d="M 9.160156 -13.457031 C 7.296875 -13.457031 5.746094 -12.574219 4.863281 -11.4375 L 4.863281 -8.980469 C 5.796875 -11.023438 7.453125 -11.722656 8.796875 -11.722656 C 11.488281 -11.722656 13.222656 -9.445312 13.222656 -6.574219 C 13.222656 -3.90625 11.488281 -1.476562 8.796875 -1.476562 C 7.140625 -1.476562 5.71875 -2.40625 4.863281 -4.21875 L 4.863281 -1.890625 C 5.71875 -0.648438 7.269531 0.285156 9.160156 0.285156 C 12.78125 0.285156 15.136719 -2.792969 15.136719 -6.574219 C 15.136719 -10.324219 12.78125 -13.457031 9.160156 -13.457031 Z M 3.984375 5.277344 C 4.269531 5.277344 4.375 5.175781 4.375 4.863281 L 4.375 -12.03125 L 4.089844 -12.835938 C 3.90625 -13.066406 3.675781 -13.171875 3.441406 -13.171875 L 2.820312 -13.171875 C 2.535156 -13.171875 2.433594 -13.066406 2.433594 -12.757812 L 2.433594 4.863281 C 2.433594 5.175781 2.535156 5.277344 2.820312 5.277344 Z M 3.984375 5.277344 "/></g></g></g><g fill="#000000" fill-opacity="1"><g transform="translate(320.766268, 153.872374)"><g><path d="M 8.953125 -10.015625 C 6.105469 -10.375 3.699219 -10.921875 3.699219 -13.042969 C 3.699219 -14.335938 4.527344 -16.457031 8.046875 -16.5625 L 8.046875 -18.398438 C 3.183594 -18.347656 1.707031 -14.929688 1.707031 -12.988281 C 1.707031 -9.546875 4.996094 -8.695312 7.816406 -8.304688 C 11.203125 -7.839844 13.144531 -7.140625 13.144531 -4.996094 C 13.144531 -2.457031 10.945312 -1.578125 8.4375 -1.527344 L 8.4375 0.285156 C 12.988281 0.335938 15.136719 -2.355469 15.136719 -5.070312 C 15.136719 -8.539062 12.292969 -9.574219 8.953125 -10.015625 Z M 1.550781 -1.707031 C 3.363281 -0.441406 5.539062 0.207031 7.945312 0.285156 L 7.945312 -1.527344 C 6.183594 -1.578125 4.089844 -2.199219 2.535156 -3.261719 C 2.40625 -3.339844 2.328125 -3.363281 2.25 -3.363281 C 2.121094 -3.363281 2.042969 -3.285156 1.941406 -3.105469 L 1.449219 -2.277344 C 1.292969 -1.992188 1.292969 -1.863281 1.550781 -1.707031 Z M 8.539062 -16.585938 C 10.402344 -16.585938 12.085938 -15.941406 13.664062 -14.878906 C 13.765625 -14.800781 13.84375 -14.777344 13.894531 -14.777344 C 14.023438 -14.777344 14.128906 -14.878906 14.230469 -15.058594 L 14.722656 -15.863281 C 14.828125 -16.121094 14.878906 -16.277344 14.59375 -16.433594 C 12.78125 -17.542969 11.050781 -18.320312 8.539062 -18.398438 Z M 8.539062 -16.585938 "/></g></g></g><g fill="#000000" fill-opacity="1"><g transform="translate(336.78216, 153.872374)"><g><path d="M 12.859375 -2.691406 C 12.78125 -2.792969 12.707031 -2.847656 12.601562 -2.847656 C 12.523438 -2.847656 12.421875 -2.792969 12.292969 -2.71875 C 11.050781 -1.8125 9.472656 -1.421875 8.230469 -1.421875 C 5.433594 -1.421875 3.234375 -3.648438 3.234375 -6.390625 L 3.234375 -6.753906 C 3.234375 -9.367188 5.125 -11.617188 7.683594 -11.824219 L 7.683594 -13.457031 C 4.0625 -13.300781 1.242188 -10.167969 1.242188 -6.574219 C 1.242188 -2.792969 4.242188 0.285156 8.152344 0.285156 C 10.039062 0.285156 12.164062 -0.335938 13.351562 -1.527344 C 13.558594 -1.707031 13.535156 -1.863281 13.351562 -2.097656 Z M 14.414062 -6.3125 C 14.414062 -10.09375 12.136719 -13.351562 8.203125 -13.457031 L 8.203125 -11.824219 C 10.84375 -11.671875 12.34375 -9.339844 12.421875 -7.246094 L 3.777344 -7.246094 C 3.675781 -6.855469 3.675781 -6.261719 3.777344 -5.898438 L 14.023438 -5.898438 C 14.363281 -5.898438 14.414062 -6.003906 14.414062 -6.3125 Z M 14.414062 -6.3125 "/></g></g></g><g fill="#000000" fill-opacity="1"><g transform="translate(351.788965, 153.872374)"><g><path d="M 12.859375 -2.691406 C 12.78125 -2.792969 12.707031 -2.847656 12.601562 -2.847656 C 12.523438 -2.847656 12.421875 -2.792969 12.292969 -2.71875 C 11.050781 -1.8125 9.472656 -1.421875 8.230469 -1.421875 C 5.433594 -1.421875 3.234375 -3.648438 3.234375 -6.390625 L 3.234375 -6.753906 C 3.234375 -9.367188 5.125 -11.617188 7.683594 -11.824219 L 7.683594 -13.457031 C 4.0625 -13.300781 1.242188 -10.167969 1.242188 -6.574219 C 1.242188 -2.792969 4.242188 0.285156 8.152344 0.285156 C 10.039062 0.285156 12.164062 -0.335938 13.351562 -1.527344 C 13.558594 -1.707031 13.535156 -1.863281 13.351562 -2.097656 Z M 14.414062 -6.3125 C 14.414062 -10.09375 12.136719 -13.351562 8.203125 -13.457031 L 8.203125 -11.824219 C 10.84375 -11.671875 12.34375 -9.339844 12.421875 -7.246094 L 3.777344 -7.246094 C 3.675781 -6.855469 3.675781 -6.261719 3.777344 -5.898438 L 14.023438 -5.898438 C 14.363281 -5.898438 14.414062 -6.003906 14.414062 -6.3125 Z M 14.414062 -6.3125 "/></g></g></g><g fill="#000000" fill-opacity="1"><g transform="translate(366.795777, 153.872374)"><g><path d="M 7.21875 0.285156 C 9.082031 0.285156 10.660156 -0.59375 11.515625 -1.734375 L 11.515625 -4.191406 C 10.582031 -2.148438 8.953125 -1.449219 7.609375 -1.449219 C 4.890625 -1.449219 3.183594 -3.726562 3.183594 -6.597656 C 3.183594 -9.265625 4.890625 -11.695312 7.609375 -11.695312 C 9.265625 -11.695312 10.6875 -10.765625 11.515625 -8.953125 L 11.515625 -11.28125 C 10.660156 -12.523438 9.109375 -13.457031 7.21875 -13.457031 C 3.597656 -13.457031 1.242188 -10.375 1.242188 -6.597656 C 1.242188 -2.847656 3.597656 0.285156 7.21875 0.285156 Z M 13.949219 -18.683594 C 13.949219 -18.992188 13.84375 -19.097656 13.558594 -19.097656 L 12.394531 -19.097656 C 12.109375 -19.097656 12.007812 -18.992188 12.007812 -18.683594 L 12.007812 -1.136719 L 12.316406 -0.335938 C 12.472656 -0.101562 12.730469 0 12.964844 0 L 13.558594 0 C 13.84375 0 13.949219 -0.101562 13.949219 -0.414062 Z M 13.949219 -18.683594 "/></g></g></g></svg>