<svg xmlns="http://www.w3.org/2000/svg" xmlns:xlink="http://www.w3.org/1999/xlink" width="956" zoomAndPan="magnify" viewBox="0 0 717 164.249993" height="219" preserveAspectRatio="xMidYMid meet" version="1.0"><defs><g/><clipPath id="49d72b8d85"><path d="M 9 6 L 168 6 L 168 163.503906 L 9 163.503906 Z M 9 6 " clip-rule="nonzero"/></clipPath></defs><g clip-path="url(#49d72b8d85)"><path fill="#ec407a" d="M 76.519531 144.386719 C 76.550781 144.035156 76.597656 143.679688 76.613281 143.328125 C 76.964844 137.9375 76.875 131.566406 75.585938 125.300781 L 75.585938 125.257812 C 72.222656 128.480469 68.644531 131.78125 64.773438 135.21875 C 64.652344 127.007812 62.242188 120.359375 57.710938 115.832031 L 57.710938 115.816406 C 57.695312 115.816406 57.695312 115.816406 57.695312 115.816406 C 53.167969 111.285156 46.515625 108.875 38.300781 108.753906 C 41.742188 104.882812 45.042969 101.308594 48.269531 97.945312 L 48.222656 97.945312 C 41.957031 96.65625 35.585938 96.546875 30.179688 96.914062 C 29.84375 96.929688 29.488281 96.976562 29.136719 97.007812 C 45.335938 80.828125 59.214844 81.488281 64.160156 82.40625 C 103.851562 46.34375 122.539062 50.996094 122.539062 50.996094 C 122.539062 50.996094 127.195312 69.679688 91.125 109.367188 C 92.046875 114.308594 92.707031 128.1875 76.519531 144.386719 Z M 139.617188 25.296875 C 110.300781 0.117188 66.355469 0.0429688 36.980469 25.144531 C 7.820312 50.042969 1.632812 90.714844 18.386719 122.339844 C 23.46875 131.949219 37.058594 132.609375 43.339844 123.722656 L 43.355469 123.707031 L 35.414062 115.785156 C 35.429688 115.769531 35.414062 115.769531 35.429688 115.769531 C 40.714844 115.355469 48.253906 115.785156 52.996094 120.527344 C 57.742188 125.273438 58.171875 132.808594 57.757812 138.089844 C 57.757812 138.089844 57.742188 138.089844 57.742188 138.105469 L 49.820312 130.167969 C 40.851562 136.511719 41.679688 150.144531 51.402344 155.238281 C 81.21875 170.929688 119.039062 166.246094 144.082031 141.207031 C 176.328125 108.96875 174.839844 55.585938 139.617188 25.296875 " fill-opacity="1" fill-rule="nonzero"/></g><path fill="#ec407a" d="M 95.5 86.84375 C 93.074219 89.269531 89.128906 89.269531 86.6875 86.84375 C 84.261719 84.402344 84.261719 80.457031 86.6875 78.03125 C 89.128906 75.589844 93.074219 75.589844 95.5 78.03125 C 97.941406 80.457031 97.941406 84.402344 95.5 86.84375 " fill-opacity="1" fill-rule="nonzero"/><g fill="#ffffff" fill-opacity="1"><g transform="translate(172.505862, 120.938487)"><g><path d="M 9.183594 0 C 10.300781 0 10.796875 -0.371094 11.417969 -1.738281 L 43.9375 -74.839844 L 44.058594 -74.839844 L 62.429688 -33.632812 L 70.496094 -33.632812 L 45.425781 -87.625 C 45.054688 -88.492188 44.679688 -89.113281 44.183594 -89.113281 L 43.8125 -89.113281 C 43.191406 -89.113281 42.820312 -88.492188 42.445312 -87.625 L 2.359375 -1.738281 C 1.984375 -0.746094 2.359375 0 3.351562 0 Z M 27.304688 -31.277344 L 24.078125 -24.203125 L 66.277344 -24.203125 L 76.453125 -1.738281 C 77.199219 -0.371094 77.570312 0 78.6875 0 L 84.398438 0 C 85.515625 0 86.011719 -0.746094 85.515625 -1.738281 L 71.738281 -31.277344 Z M 27.304688 -31.277344 "/></g></g></g><g fill="#ffffff" fill-opacity="1"><g transform="translate(260.00281, 120.938487)"><g><path d="M 43.5625 -64.539062 C 34.007812 -64.539062 26.4375 -59.945312 22.214844 -53.988281 L 22.214844 -43.441406 C 27.058594 -53.988281 35.371094 -57.589844 42.199219 -57.589844 C 56.097656 -57.589844 64.664062 -46.046875 64.664062 -31.523438 C 64.664062 -18.121094 56.097656 -5.710938 42.199219 -5.710938 C 33.757812 -5.710938 26.558594 -10.425781 22.214844 -19.859375 L 22.214844 -9.679688 C 26.4375 -3.476562 34.007812 1.367188 43.5625 1.367188 C 61.1875 1.367188 72.234375 -13.402344 72.234375 -31.523438 C 72.234375 -49.519531 61.1875 -64.539062 43.5625 -64.539062 Z M 18.246094 25.320312 C 19.484375 25.320312 19.859375 24.824219 19.859375 23.582031 L 19.859375 -57.710938 L 18.863281 -61.683594 C 18.121094 -62.675781 17.25 -63.171875 16.257812 -63.171875 L 13.777344 -63.171875 C 12.660156 -63.171875 12.164062 -62.800781 12.164062 -61.4375 L 12.164062 23.582031 C 12.164062 24.945312 12.660156 25.320312 13.777344 25.320312 Z M 18.246094 25.320312 "/></g></g></g><g fill="#ffffff" fill-opacity="1"><g transform="translate(338.439791, 120.938487)"><g><path d="M 43.5625 -64.539062 C 34.007812 -64.539062 26.4375 -59.945312 22.214844 -53.988281 L 22.214844 -43.441406 C 27.058594 -53.988281 35.371094 -57.589844 42.199219 -57.589844 C 56.097656 -57.589844 64.664062 -46.046875 64.664062 -31.523438 C 64.664062 -18.121094 56.097656 -5.710938 42.199219 -5.710938 C 33.757812 -5.710938 26.558594 -10.425781 22.214844 -19.859375 L 22.214844 -9.679688 C 26.4375 -3.476562 34.007812 1.367188 43.5625 1.367188 C 61.1875 1.367188 72.234375 -13.402344 72.234375 -31.523438 C 72.234375 -49.519531 61.1875 -64.539062 43.5625 -64.539062 Z M 18.246094 25.320312 C 19.484375 25.320312 19.859375 24.824219 19.859375 23.582031 L 19.859375 -57.710938 L 18.863281 -61.683594 C 18.121094 -62.675781 17.25 -63.171875 16.257812 -63.171875 L 13.777344 -63.171875 C 12.660156 -63.171875 12.164062 -62.800781 12.164062 -61.4375 L 12.164062 23.582031 C 12.164062 24.945312 12.660156 25.320312 13.777344 25.320312 Z M 18.246094 25.320312 "/></g></g></g><g fill="#ffffff" fill-opacity="1"><g transform="translate(416.876772, 120.938487)"><g><path d="M 42.820312 -47.410156 C 28.792969 -49.273438 16.257812 -52.003906 16.257812 -62.925781 C 16.257812 -69.253906 20.601562 -80.425781 38.597656 -80.921875 L 38.597656 -88.246094 C 15.140625 -87.996094 8.316406 -71.613281 8.316406 -62.675781 C 8.316406 -46.542969 24.328125 -42.570312 37.855469 -40.710938 C 54.859375 -38.226562 64.414062 -34.628906 64.414062 -23.828125 C 64.414062 -10.550781 52.75 -6.082031 40.585938 -5.832031 L 40.585938 1.367188 C 62.304688 1.488281 72.359375 -11.171875 72.359375 -24.078125 C 72.359375 -40.210938 58.953125 -45.175781 42.820312 -47.410156 Z M 7.445312 -8.191406 C 16.257812 -2.109375 26.683594 0.992188 38.226562 1.367188 L 38.226562 -5.832031 C 29.289062 -6.082031 18.863281 -9.308594 11.417969 -14.398438 C 10.921875 -14.769531 10.550781 -14.894531 10.175781 -14.894531 C 9.679688 -14.894531 9.433594 -14.519531 8.9375 -13.902344 L 6.949219 -10.671875 C 6.328125 -9.433594 6.328125 -8.9375 7.445312 -8.191406 Z M 40.957031 -81.046875 C 50.019531 -80.921875 58.582031 -77.570312 66.152344 -72.480469 C 66.648438 -72.234375 66.898438 -72.109375 67.269531 -72.109375 C 67.890625 -72.109375 68.261719 -72.480469 68.632812 -73.226562 L 70.496094 -76.328125 C 70.992188 -77.445312 71.117188 -78.066406 70 -78.8125 C 61.3125 -84.148438 52.996094 -87.871094 40.957031 -88.246094 Z M 40.957031 -81.046875 "/></g></g></g><g fill="#ffffff" fill-opacity="1"><g transform="translate(496.058396, 120.938487)"><g><path d="M 62.304688 -12.039062 C 61.933594 -12.535156 61.558594 -12.785156 61.1875 -12.785156 C 60.816406 -12.785156 60.441406 -12.535156 59.945312 -12.164062 C 54.113281 -7.695312 46.171875 -5.460938 39.59375 -5.460938 C 25.441406 -5.460938 14.023438 -16.878906 14.023438 -30.53125 L 14.023438 -32.519531 C 14.023438 -45.425781 23.828125 -56.96875 36.984375 -57.960938 L 36.984375 -64.539062 C 19.609375 -63.792969 6.082031 -48.777344 6.082031 -31.523438 C 6.082031 -13.402344 20.480469 1.367188 39.21875 1.367188 C 48.28125 1.367188 58.457031 -1.613281 64.167969 -7.324219 C 65.035156 -8.066406 65.035156 -8.8125 64.289062 -9.804688 Z M 69.253906 -30.40625 C 69.253906 -48.527344 58.085938 -64.042969 39.46875 -64.539062 L 39.46875 -57.960938 C 52.996094 -57.214844 61.0625 -45.300781 61.3125 -34.253906 L 16.753906 -34.253906 C 16.257812 -32.765625 16.257812 -30.160156 16.753906 -28.671875 L 67.640625 -28.671875 C 69.007812 -28.671875 69.253906 -29.167969 69.253906 -30.40625 Z M 69.253906 -30.40625 "/></g></g></g><g fill="#ffffff" fill-opacity="1"><g transform="translate(570.772117, 120.938487)"><g><path d="M 62.304688 -12.039062 C 61.933594 -12.535156 61.558594 -12.785156 61.1875 -12.785156 C 60.816406 -12.785156 60.441406 -12.535156 59.945312 -12.164062 C 54.113281 -7.695312 46.171875 -5.460938 39.59375 -5.460938 C 25.441406 -5.460938 14.023438 -16.878906 14.023438 -30.53125 L 14.023438 -32.519531 C 14.023438 -45.425781 23.828125 -56.96875 36.984375 -57.960938 L 36.984375 -64.539062 C 19.609375 -63.792969 6.082031 -48.777344 6.082031 -31.523438 C 6.082031 -13.402344 20.480469 1.367188 39.21875 1.367188 C 48.28125 1.367188 58.457031 -1.613281 64.167969 -7.324219 C 65.035156 -8.066406 65.035156 -8.8125 64.289062 -9.804688 Z M 69.253906 -30.40625 C 69.253906 -48.527344 58.085938 -64.042969 39.46875 -64.539062 L 39.46875 -57.960938 C 52.996094 -57.214844 61.0625 -45.300781 61.3125 -34.253906 L 16.753906 -34.253906 C 16.257812 -32.765625 16.257812 -30.160156 16.753906 -28.671875 L 67.640625 -28.671875 C 69.007812 -28.671875 69.253906 -29.167969 69.253906 -30.40625 Z M 69.253906 -30.40625 "/></g></g></g><g fill="#ffffff" fill-opacity="1"><g transform="translate(645.485838, 120.938487)"><g><path d="M 34.875 1.367188 C 44.433594 1.367188 52.003906 -3.226562 56.222656 -9.183594 L 56.222656 -19.609375 C 51.382812 -9.183594 43.191406 -5.585938 36.242188 -5.585938 C 22.339844 -5.585938 13.902344 -17.128906 13.902344 -31.648438 C 13.902344 -45.054688 22.339844 -57.464844 36.242188 -57.464844 C 44.679688 -57.464844 51.878906 -52.75 56.222656 -43.316406 L 56.222656 -53.492188 C 52.003906 -59.699219 44.433594 -64.539062 34.875 -64.539062 C 17.25 -64.539062 6.207031 -49.769531 6.207031 -31.648438 C 6.207031 -13.527344 17.25 1.367188 34.875 1.367188 Z M 66.277344 -89.859375 C 66.277344 -91.222656 65.78125 -91.59375 64.664062 -91.59375 L 60.195312 -91.59375 C 58.953125 -91.59375 58.582031 -91.097656 58.582031 -89.859375 L 58.582031 -5.460938 L 59.699219 -1.488281 C 60.320312 -0.371094 61.3125 0 62.179688 0 L 64.664062 0 C 65.78125 0 66.277344 -0.371094 66.277344 -1.738281 Z M 66.277344 -89.859375 "/></g></g></g></svg>