<svg xmlns="http://www.w3.org/2000/svg" xmlns:xlink="http://www.w3.org/1999/xlink" width="956" zoomAndPan="magnify" viewBox="0 0 717 164.249993" height="219" preserveAspectRatio="xMidYMid meet" version="1.0"><defs><g/><clipPath id="54c73a654c"><path d="M 5.921875 2.027344 L 165.691406 2.027344 L 165.691406 161.796875 L 5.921875 161.796875 Z M 5.921875 2.027344 " clip-rule="nonzero"/></clipPath><clipPath id="045bc4c93e"><path d="M 92.859375 161.179688 L 126.695312 105.101562 C 126.855469 104.835938 126.914062 104.519531 126.855469 104.214844 L 124.121094 89.527344 C 143.859375 67.691406 158.890625 46.617188 163.679688 24.527344 C 163.734375 24.390625 163.769531 24.25 163.777344 24.097656 C 165.179688 17.445312 165.664062 10.703125 165.050781 3.816406 C 164.996094 3.203125 164.511719 2.71875 163.902344 2.664062 C 157.015625 2.050781 150.269531 2.539062 143.617188 3.941406 C 143.472656 3.945312 143.335938 3.980469 143.203125 4.035156 C 121.109375 8.820312 100.03125 23.855469 78.191406 43.59375 L 63.5 40.863281 C 63.195312 40.804688 62.882812 40.863281 62.617188 41.019531 L 6.535156 74.855469 C 6.15625 75.085938 5.925781 75.5 5.925781 75.941406 C 5.925781 75.972656 5.925781 76.003906 5.929688 76.039062 C 5.964844 76.515625 6.269531 76.929688 6.710938 77.113281 L 38.1875 90.015625 L 34.515625 93.6875 C 34.269531 93.933594 34.144531 94.257812 34.144531 94.582031 C 34.144531 94.90625 34.269531 95.230469 34.515625 95.476562 L 50.425781 111.382812 L 46.527344 115.28125 C 46.28125 115.527344 46.15625 115.851562 46.15625 116.171875 C 46.15625 116.496094 46.28125 116.820312 46.527344 117.066406 L 50.648438 121.191406 C 51.144531 121.683594 51.941406 121.683594 52.4375 121.191406 L 56.335938 117.292969 L 72.242188 133.199219 C 72.734375 133.695312 73.535156 133.695312 74.03125 133.199219 L 77.703125 129.527344 L 90.605469 161.003906 C 90.789062 161.449219 91.203125 161.75 91.679688 161.789062 C 92.15625 161.824219 92.613281 161.589844 92.859375 161.179688 Z M 103.625 70.003906 C 104.117188 69.507812 104.117188 68.707031 103.625 68.214844 L 99.503906 64.09375 C 99.007812 63.597656 98.207031 63.597656 97.714844 64.09375 L 57.226562 104.578125 L 41.703125 89.054688 L 41.792969 85.367188 C 41.84375 83.429688 42.625 81.609375 43.996094 80.238281 C 78.6875 45.539062 109.5 14.753906 142.121094 6.890625 C 142.097656 7.175781 142.085938 7.476562 142.085938 7.8125 C 142.085938 10.710938 143.003906 15.332031 147.695312 20.023438 C 152.921875 25.25 158.058594 25.792969 160.824219 25.601562 C 152.960938 58.21875 122.175781 89.027344 87.480469 123.722656 C 86.105469 125.09375 84.285156 125.875 82.351562 125.921875 L 78.664062 126.011719 L 63.136719 110.488281 Z M 162.617188 5.101562 C 163.054688 11.152344 162.601562 17.105469 161.410156 22.996094 C 159.597656 23.269531 154.648438 23.402344 149.480469 18.234375 C 144.300781 13.054688 144.4375 8.132812 144.71875 6.308594 C 150.609375 5.113281 156.5625 4.664062 162.617188 5.101562 Z M 10 75.726562 L 63.511719 43.4375 L 75.84375 45.730469 C 64.910156 55.75 53.773438 66.882812 42.207031 78.449219 C 40.375 80.285156 39.332031 82.71875 39.269531 85.304688 L 39.210938 87.695312 Z M 37.199219 94.582031 L 40.425781 91.351562 L 55.441406 106.367188 L 52.210938 109.59375 Z M 49.210938 116.171875 L 98.609375 66.777344 L 100.941406 69.109375 L 51.542969 118.507812 Z M 58.121094 115.503906 L 61.351562 112.277344 L 76.363281 127.289062 L 73.132812 130.519531 Z M 80.019531 128.507812 L 82.414062 128.449219 C 84.996094 128.386719 87.433594 127.34375 89.265625 125.507812 C 100.835938 113.945312 111.964844 102.808594 121.984375 91.875 L 124.277344 104.207031 L 91.992188 157.71875 Z M 144.363281 42.054688 C 144.363281 37.058594 142.417969 32.363281 138.882812 28.832031 C 135.351562 25.300781 130.660156 23.355469 125.664062 23.355469 C 120.667969 23.355469 115.972656 25.300781 112.441406 28.832031 C 108.796875 32.476562 106.972656 37.265625 106.972656 42.054688 C 106.972656 46.839844 108.796875 51.628906 112.441406 55.273438 C 119.730469 62.566406 131.59375 62.566406 138.882812 55.273438 C 142.417969 51.742188 144.363281 47.046875 144.363281 42.054688 Z M 114.230469 53.488281 C 107.925781 47.179688 107.925781 36.921875 114.230469 30.621094 C 117.285156 27.566406 121.34375 25.882812 125.664062 25.882812 C 129.980469 25.882812 134.042969 27.566406 137.097656 30.621094 C 140.148438 33.671875 141.832031 37.734375 141.832031 42.054688 C 141.832031 46.371094 140.148438 50.433594 137.097656 53.488281 C 130.792969 59.792969 120.535156 59.792969 114.230469 53.488281 Z M 135.179688 32.535156 C 129.933594 27.289062 121.394531 27.289062 116.144531 32.535156 C 113.523438 35.160156 112.210938 38.605469 112.210938 42.054688 C 112.210938 45.5 113.523438 48.945312 116.144531 51.570312 C 121.394531 56.816406 129.933594 56.816406 135.179688 51.570312 C 140.429688 46.324219 140.429688 37.785156 135.179688 32.535156 Z M 117.9375 49.78125 C 113.675781 45.519531 113.675781 38.585938 117.9375 34.324219 C 122.199219 30.066406 129.128906 30.066406 133.390625 34.324219 C 135.523438 36.457031 136.585938 39.253906 136.585938 42.054688 C 136.585938 44.851562 135.523438 47.652344 133.390625 49.78125 C 129.128906 54.042969 122.195312 54.042969 117.9375 49.78125 Z M 117.9375 49.78125 " clip-rule="nonzero"/></clipPath></defs><g clip-path="url(#54c73a654c)"><g clip-path="url(#045bc4c93e)"><path fill="#ec407a" d="M 165.664062 2.050781 L 5.925781 2.050781 L 5.925781 161.796875 L 165.664062 161.796875 Z M 165.664062 2.050781 " fill-opacity="1" fill-rule="nonzero"/></g></g><g fill="#000000" fill-opacity="1"><g transform="translate(171.957729, 113.510977)"><g><path d="M 9.050781 0 C 10.148438 0 10.640625 -0.367188 11.25 -1.710938 L 43.289062 -73.738281 L 43.410156 -73.738281 L 61.507812 -33.140625 L 69.457031 -33.140625 L 44.757812 -86.332031 C 44.390625 -87.1875 44.023438 -87.800781 43.535156 -87.800781 L 43.167969 -87.800781 C 42.554688 -87.800781 42.1875 -87.1875 41.820312 -86.332031 L 2.324219 -1.710938 C 1.957031 -0.734375 2.324219 0 3.300781 0 Z M 26.902344 -30.816406 L 23.722656 -23.84375 L 65.300781 -23.84375 L 75.328125 -1.710938 C 76.0625 -0.367188 76.429688 0 77.527344 0 L 83.152344 0 C 84.253906 0 84.742188 -0.734375 84.253906 -1.710938 L 70.679688 -30.816406 Z M 26.902344 -30.816406 "/></g></g></g><g fill="#000000" fill-opacity="1"><g transform="translate(258.160317, 113.510977)"><g><path d="M 42.921875 -63.585938 C 33.507812 -63.585938 26.046875 -59.0625 21.890625 -53.195312 L 21.890625 -42.800781 C 26.65625 -53.195312 34.851562 -56.738281 41.578125 -56.738281 C 55.273438 -56.738281 63.710938 -45.367188 63.710938 -31.058594 C 63.710938 -17.855469 55.273438 -5.625 41.578125 -5.625 C 33.261719 -5.625 26.167969 -10.273438 21.890625 -19.566406 L 21.890625 -9.539062 C 26.046875 -3.425781 33.507812 1.34375 42.921875 1.34375 C 60.285156 1.34375 71.167969 -13.207031 71.167969 -31.058594 C 71.167969 -48.792969 60.285156 -63.585938 42.921875 -63.585938 Z M 17.976562 24.945312 C 19.199219 24.945312 19.566406 24.457031 19.566406 23.234375 L 19.566406 -56.863281 L 18.585938 -60.773438 C 17.855469 -61.753906 16.996094 -62.242188 16.019531 -62.242188 L 13.574219 -62.242188 C 12.472656 -62.242188 11.984375 -61.875 11.984375 -60.53125 L 11.984375 23.234375 C 11.984375 24.578125 12.472656 24.945312 13.574219 24.945312 Z M 17.976562 24.945312 "/></g></g></g><g fill="#000000" fill-opacity="1"><g transform="translate(335.436962, 113.510977)"><g><path d="M 42.921875 -63.585938 C 33.507812 -63.585938 26.046875 -59.0625 21.890625 -53.195312 L 21.890625 -42.800781 C 26.65625 -53.195312 34.851562 -56.738281 41.578125 -56.738281 C 55.273438 -56.738281 63.710938 -45.367188 63.710938 -31.058594 C 63.710938 -17.855469 55.273438 -5.625 41.578125 -5.625 C 33.261719 -5.625 26.167969 -10.273438 21.890625 -19.566406 L 21.890625 -9.539062 C 26.046875 -3.425781 33.507812 1.34375 42.921875 1.34375 C 60.285156 1.34375 71.167969 -13.207031 71.167969 -31.058594 C 71.167969 -48.792969 60.285156 -63.585938 42.921875 -63.585938 Z M 17.976562 24.945312 C 19.199219 24.945312 19.566406 24.457031 19.566406 23.234375 L 19.566406 -56.863281 L 18.585938 -60.773438 C 17.855469 -61.753906 16.996094 -62.242188 16.019531 -62.242188 L 13.574219 -62.242188 C 12.472656 -62.242188 11.984375 -61.875 11.984375 -60.53125 L 11.984375 23.234375 C 11.984375 24.578125 12.472656 24.945312 13.574219 24.945312 Z M 17.976562 24.945312 "/></g></g></g><g fill="#000000" fill-opacity="1"><g transform="translate(412.713607, 113.510977)"><g><path d="M 42.1875 -46.710938 C 28.371094 -48.546875 16.019531 -51.238281 16.019531 -62 C 16.019531 -68.234375 20.300781 -79.242188 38.03125 -79.730469 L 38.03125 -86.945312 C 14.917969 -86.699219 8.191406 -70.558594 8.191406 -61.753906 C 8.191406 -45.855469 23.96875 -41.945312 37.296875 -40.109375 C 54.050781 -37.664062 63.464844 -34.117188 63.464844 -23.480469 C 63.464844 -10.394531 51.972656 -5.992188 39.988281 -5.746094 L 39.988281 1.34375 C 61.386719 1.46875 71.292969 -11.003906 71.292969 -23.722656 C 71.292969 -39.621094 58.085938 -44.511719 42.1875 -46.710938 Z M 7.335938 -8.070312 C 16.019531 -2.078125 26.292969 0.976562 37.664062 1.34375 L 37.664062 -5.746094 C 28.859375 -5.992188 18.585938 -9.171875 11.25 -14.183594 C 10.761719 -14.550781 10.394531 -14.675781 10.027344 -14.675781 C 9.539062 -14.675781 9.292969 -14.308594 8.804688 -13.695312 L 6.847656 -10.515625 C 6.238281 -9.292969 6.238281 -8.804688 7.335938 -8.070312 Z M 40.355469 -79.851562 C 49.28125 -79.730469 57.71875 -76.429688 65.175781 -71.414062 C 65.667969 -71.167969 65.910156 -71.046875 66.277344 -71.046875 C 66.890625 -71.046875 67.257812 -71.414062 67.625 -72.148438 L 69.457031 -75.203125 C 69.945312 -76.304688 70.070312 -76.917969 68.96875 -77.652344 C 60.410156 -82.910156 52.214844 -86.578125 40.355469 -86.945312 Z M 40.355469 -79.851562 "/></g></g></g><g fill="#000000" fill-opacity="1"><g transform="translate(490.723903, 113.510977)"><g><path d="M 61.386719 -11.863281 C 61.019531 -12.351562 60.652344 -12.59375 60.285156 -12.59375 C 59.917969 -12.59375 59.550781 -12.351562 59.0625 -11.984375 C 53.316406 -7.582031 45.488281 -5.378906 39.007812 -5.378906 C 25.066406 -5.378906 13.816406 -16.628906 13.816406 -30.082031 L 13.816406 -32.039062 C 13.816406 -44.757812 23.480469 -56.128906 36.441406 -57.105469 L 36.441406 -63.585938 C 19.320312 -62.855469 5.992188 -48.058594 5.992188 -31.058594 C 5.992188 -13.207031 20.175781 1.34375 38.640625 1.34375 C 47.570312 1.34375 57.597656 -1.589844 63.222656 -7.214844 C 64.078125 -7.949219 64.078125 -8.683594 63.34375 -9.660156 Z M 68.234375 -29.960938 C 68.234375 -47.8125 57.230469 -63.097656 38.886719 -63.585938 L 38.886719 -57.105469 C 52.214844 -56.375 60.164062 -44.632812 60.410156 -33.75 L 16.507812 -33.75 C 16.019531 -32.28125 16.019531 -29.714844 16.507812 -28.246094 L 66.644531 -28.246094 C 67.988281 -28.246094 68.234375 -28.738281 68.234375 -29.960938 Z M 68.234375 -29.960938 "/></g></g></g><g fill="#000000" fill-opacity="1"><g transform="translate(564.332363, 113.510977)"><g><path d="M 61.386719 -11.863281 C 61.019531 -12.351562 60.652344 -12.59375 60.285156 -12.59375 C 59.917969 -12.59375 59.550781 -12.351562 59.0625 -11.984375 C 53.316406 -7.582031 45.488281 -5.378906 39.007812 -5.378906 C 25.066406 -5.378906 13.816406 -16.628906 13.816406 -30.082031 L 13.816406 -32.039062 C 13.816406 -44.757812 23.480469 -56.128906 36.441406 -57.105469 L 36.441406 -63.585938 C 19.320312 -62.855469 5.992188 -48.058594 5.992188 -31.058594 C 5.992188 -13.207031 20.175781 1.34375 38.640625 1.34375 C 47.570312 1.34375 57.597656 -1.589844 63.222656 -7.214844 C 64.078125 -7.949219 64.078125 -8.683594 63.34375 -9.660156 Z M 68.234375 -29.960938 C 68.234375 -47.8125 57.230469 -63.097656 38.886719 -63.585938 L 38.886719 -57.105469 C 52.214844 -56.375 60.164062 -44.632812 60.410156 -33.75 L 16.507812 -33.75 C 16.019531 -32.28125 16.019531 -29.714844 16.507812 -28.246094 L 66.644531 -28.246094 C 67.988281 -28.246094 68.234375 -28.738281 68.234375 -29.960938 Z M 68.234375 -29.960938 "/></g></g></g><g fill="#000000" fill-opacity="1"><g transform="translate(637.940822, 113.510977)"><g><path d="M 34.363281 1.34375 C 43.777344 1.34375 51.238281 -3.179688 55.394531 -9.050781 L 55.394531 -19.320312 C 50.625 -9.050781 42.554688 -5.503906 35.707031 -5.503906 C 22.011719 -5.503906 13.695312 -16.875 13.695312 -31.183594 C 13.695312 -44.390625 22.011719 -56.617188 35.707031 -56.617188 C 44.023438 -56.617188 51.113281 -51.972656 55.394531 -42.675781 L 55.394531 -52.703125 C 51.238281 -58.820312 43.777344 -63.585938 34.363281 -63.585938 C 16.996094 -63.585938 6.113281 -49.035156 6.113281 -31.183594 C 6.113281 -13.328125 16.996094 1.34375 34.363281 1.34375 Z M 65.300781 -88.535156 C 65.300781 -89.878906 64.8125 -90.246094 63.710938 -90.246094 L 59.308594 -90.246094 C 58.085938 -90.246094 57.71875 -89.757812 57.71875 -88.535156 L 57.71875 -5.378906 L 58.820312 -1.46875 C 59.429688 -0.367188 60.410156 0 61.265625 0 L 63.710938 0 C 64.8125 0 65.300781 -0.367188 65.300781 -1.710938 Z M 65.300781 -88.535156 "/></g></g></g></svg>