<svg xmlns="http://www.w3.org/2000/svg" xmlns:xlink="http://www.w3.org/1999/xlink" width="956" zoomAndPan="magnify" viewBox="0 0 717 164.249993" height="219" preserveAspectRatio="xMidYMid meet" version="1.0"><defs><g/><clipPath id="46dbb37496"><path d="M 1.628906 0 L 250.246094 0 L 250.246094 163.503906 L 1.628906 163.503906 Z M 1.628906 0 " clip-rule="nonzero"/></clipPath><clipPath id="44eeeefcfa"><path d="M 249.875 0 L 715 0 L 715 163.503906 L 249.875 163.503906 Z M 249.875 0 " clip-rule="nonzero"/></clipPath><clipPath id="f83bdcf1fc"><path d="M 47 93 L 139 93 L 139 155.960938 L 47 155.960938 Z M 47 93 " clip-rule="nonzero"/></clipPath><clipPath id="4ae94f01de"><path d="M 128 16.351562 L 220.304688 16.351562 L 220.304688 122 L 128 122 Z M 128 16.351562 " clip-rule="nonzero"/></clipPath><clipPath id="c38368a060"><path d="M 85 16.351562 L 220.304688 16.351562 L 220.304688 73 L 85 73 Z M 85 16.351562 " clip-rule="nonzero"/></clipPath></defs><g clip-path="url(#46dbb37496)"><path stroke-linecap="butt" transform="matrix(0.747714, 0, 0, 0.746591, 1.62956, 0.00126141)" fill-opacity="1" fill="#ec407a" fill-rule="nonzero" stroke-linejoin="miter" d="M -0.000874057 -0.00168957 L 332.502388 -0.00168957 L 332.502388 218.998994 L -0.000874057 218.998994 L -0.000874057 -0.00168957 " stroke="#000000" stroke-width="6" stroke-opacity="1" stroke-miterlimit="4"/></g><g clip-path="url(#44eeeefcfa)"><path stroke-linecap="butt" transform="matrix(0.746011, 0, 0, 0.746591, 249.874837, 0.00137734)" fill-opacity="1" fill="#ffffff" fill-rule="nonzero" stroke-linejoin="miter" d="M 0.000218623 -0.00184483 L 623.483129 -0.00184483 L 623.483129 218.998839 L 0.000218623 218.998839 L 0.000218623 -0.00184483 " stroke="#000000" stroke-width="6" stroke-opacity="1" stroke-miterlimit="4"/></g><path fill="#000000" d="M 116.59375 66.113281 L 123.007812 76.46875 L 127.554688 73.671875 L 120.242188 61.875 C 118.945312 63.300781 117.722656 64.71875 116.59375 66.113281 " fill-opacity="1" fill-rule="nonzero"/><path fill="#000000" d="M 129.425781 86.828125 C 131.179688 86.441406 132.996094 85.984375 134.855469 85.457031 L 127.554688 73.671875 L 123.007812 76.46875 L 129.425781 86.828125 " fill-opacity="1" fill-rule="nonzero"/><path fill="#000000" d="M 32.757812 132.066406 L 32.761719 132.066406 L 120.527344 78 L 117.847656 73.679688 L 32.757812 132.066406 " fill-opacity="1" fill-rule="nonzero"/><path fill="#000000" d="M 123.203125 82.320312 L 120.527344 78 L 32.761719 132.066406 Z M 123.203125 82.320312 " fill-opacity="1" fill-rule="nonzero"/><g clip-path="url(#f83bdcf1fc)"><path fill="#000000" d="M 138.667969 93.386719 L 47.511719 155.933594 L 134.035156 108.34375 C 136.535156 103.921875 138.832031 97.820312 138.667969 93.386719 " fill-opacity="1" fill-rule="nonzero"/></g><path fill="#000000" d="M 99.347656 52.382812 L 18.003906 108.199219 L 114.851562 54.929688 C 110.953125 52.789062 104.4375 52.117188 99.347656 52.382812 " fill-opacity="1" fill-rule="nonzero"/><g clip-path="url(#4ae94f01de)"><path fill="#000000" d="M 145.710938 104.929688 C 147.671875 99.503906 148.996094 92.78125 146.730469 87.179688 C 153.296875 84.726562 159.929688 81.722656 165.90625 78.507812 C 163.484375 86.21875 157.992188 96.164062 145.710938 104.929688 Z M 207.421875 24.472656 C 199.824219 35.386719 182.785156 58.339844 167.757812 67.617188 C 160.003906 72.402344 150.367188 76.925781 140.984375 80.199219 L 134.347656 69.484375 L 128.957031 72.804688 L 138.238281 87.78125 L 139.523438 87.359375 L 139.644531 87.503906 C 144.832031 93.765625 138.441406 106.964844 135.539062 111.515625 L 129.097656 121.574219 L 139.683594 116.015625 C 165.988281 102.195312 172.289062 82.886719 173.707031 72.609375 L 173.910156 71.121094 C 194.296875 56.757812 215.828125 23.402344 216.773438 21.925781 L 220.1875 16.605469 L 207.421875 24.472656 " fill-opacity="1" fill-rule="nonzero"/></g><g clip-path="url(#c38368a060)"><path fill="#000000" d="M 124.003906 50.5 C 119.992188 45.972656 113.375 44.15625 107.640625 43.484375 C 120.976562 36.429688 132.347656 35.964844 140.339844 37.246094 C 134.789062 41.148438 129.132812 45.730469 124.003906 50.5 Z M 213.773438 17.078125 C 212.027344 17.265625 172.511719 21.597656 150.53125 33.394531 L 149.109375 32.914062 C 139.265625 29.589844 119.140625 26.59375 95.007812 43.917969 L 85.300781 50.886719 L 97.191406 49.628906 C 102.5625 49.058594 117.230469 49.207031 120.546875 56.6875 L 120.625 56.859375 L 119.671875 57.816406 L 128.957031 72.804688 L 134.347656 69.484375 L 127.691406 58.75 C 134.816406 51.832031 143.171875 45.246094 150.929688 40.453125 C 166.050781 31.117188 194.5 26.140625 207.570312 24.261719 C 207.519531 24.328125 207.46875 24.402344 207.421875 24.472656 L 220.1875 16.605469 L 220.332031 16.378906 L 213.773438 17.078125 " fill-opacity="1" fill-rule="nonzero"/></g><g fill="#000000" fill-opacity="1"><g transform="translate(250.299697, 108.626555)"><g><path d="M 7.65625 0 C 8.589844 0 9.003906 -0.308594 9.519531 -1.449219 L 36.632812 -62.398438 L 36.734375 -62.398438 L 52.050781 -28.042969 L 58.773438 -28.042969 L 37.871094 -73.054688 C 37.5625 -73.78125 37.253906 -74.296875 36.839844 -74.296875 L 36.527344 -74.296875 C 36.011719 -74.296875 35.699219 -73.78125 35.390625 -73.054688 L 1.964844 -1.449219 C 1.65625 -0.621094 1.964844 0 2.792969 0 Z M 22.765625 -26.078125 L 20.074219 -20.179688 L 55.257812 -20.179688 L 63.742188 -1.449219 C 64.363281 -0.308594 64.671875 0 65.605469 0 L 70.363281 0 C 71.296875 0 71.710938 -0.621094 71.296875 -1.449219 L 59.808594 -26.078125 Z M 22.765625 -26.078125 "/></g></g></g><g fill="#000000" fill-opacity="1"><g transform="translate(323.244799, 108.626555)"><g><path d="M 36.320312 -53.808594 C 28.351562 -53.808594 22.039062 -49.980469 18.523438 -45.011719 L 18.523438 -36.21875 C 22.558594 -45.011719 29.492188 -48.011719 35.183594 -48.011719 C 46.773438 -48.011719 53.910156 -38.390625 53.910156 -26.285156 C 53.910156 -15.109375 46.773438 -4.761719 35.183594 -4.761719 C 28.144531 -4.761719 22.144531 -8.691406 18.523438 -16.554688 L 18.523438 -8.070312 C 22.039062 -2.898438 28.351562 1.136719 36.320312 1.136719 C 51.015625 1.136719 60.222656 -11.175781 60.222656 -26.285156 C 60.222656 -41.289062 51.015625 -53.808594 36.320312 -53.808594 Z M 15.210938 21.109375 C 16.246094 21.109375 16.554688 20.695312 16.554688 19.660156 L 16.554688 -48.117188 L 15.730469 -51.429688 C 15.109375 -52.257812 14.382812 -52.671875 13.554688 -52.671875 L 11.484375 -52.671875 C 10.554688 -52.671875 10.140625 -52.359375 10.140625 -51.222656 L 10.140625 19.660156 C 10.140625 20.800781 10.554688 21.109375 11.484375 21.109375 Z M 15.210938 21.109375 "/></g></g></g><g fill="#000000" fill-opacity="1"><g transform="translate(388.63672, 108.626555)"><g><path d="M 36.320312 -53.808594 C 28.351562 -53.808594 22.039062 -49.980469 18.523438 -45.011719 L 18.523438 -36.21875 C 22.558594 -45.011719 29.492188 -48.011719 35.183594 -48.011719 C 46.773438 -48.011719 53.910156 -38.390625 53.910156 -26.285156 C 53.910156 -15.109375 46.773438 -4.761719 35.183594 -4.761719 C 28.144531 -4.761719 22.144531 -8.691406 18.523438 -16.554688 L 18.523438 -8.070312 C 22.039062 -2.898438 28.351562 1.136719 36.320312 1.136719 C 51.015625 1.136719 60.222656 -11.175781 60.222656 -26.285156 C 60.222656 -41.289062 51.015625 -53.808594 36.320312 -53.808594 Z M 15.210938 21.109375 C 16.246094 21.109375 16.554688 20.695312 16.554688 19.660156 L 16.554688 -48.117188 L 15.730469 -51.429688 C 15.109375 -52.257812 14.382812 -52.671875 13.554688 -52.671875 L 11.484375 -52.671875 C 10.554688 -52.671875 10.140625 -52.359375 10.140625 -51.222656 L 10.140625 19.660156 C 10.140625 20.800781 10.554688 21.109375 11.484375 21.109375 Z M 15.210938 21.109375 "/></g></g></g><g fill="#000000" fill-opacity="1"><g transform="translate(454.02864, 108.626555)"><g><path d="M 35.699219 -39.527344 C 24.007812 -41.082031 13.554688 -43.355469 13.554688 -52.464844 C 13.554688 -57.742188 17.175781 -67.054688 32.179688 -67.46875 L 32.179688 -73.574219 C 12.625 -73.367188 6.933594 -59.707031 6.933594 -52.257812 C 6.933594 -38.804688 20.28125 -35.492188 31.5625 -33.941406 C 45.738281 -31.871094 53.703125 -28.871094 53.703125 -19.867188 C 53.703125 -8.796875 43.976562 -5.070312 33.835938 -4.863281 L 33.835938 1.136719 C 51.945312 1.242188 60.328125 -9.3125 60.328125 -20.074219 C 60.328125 -33.527344 49.152344 -37.664062 35.699219 -39.527344 Z M 6.207031 -6.828125 C 13.554688 -1.757812 22.246094 0.828125 31.871094 1.136719 L 31.871094 -4.863281 C 24.421875 -5.070312 15.730469 -7.761719 9.519531 -12.003906 C 9.105469 -12.3125 8.796875 -12.417969 8.484375 -12.417969 C 8.070312 -12.417969 7.863281 -12.105469 7.449219 -11.589844 L 5.792969 -8.898438 C 5.277344 -7.863281 5.277344 -7.449219 6.207031 -6.828125 Z M 34.148438 -67.570312 C 41.703125 -67.46875 48.839844 -64.671875 55.152344 -60.429688 C 55.566406 -60.222656 55.773438 -60.121094 56.085938 -60.121094 C 56.601562 -60.121094 56.914062 -60.429688 57.222656 -61.050781 L 58.773438 -63.640625 C 59.1875 -64.570312 59.292969 -65.085938 58.363281 -65.707031 C 51.117188 -70.15625 44.183594 -73.261719 34.148438 -73.574219 Z M 34.148438 -67.570312 "/></g></g></g><g fill="#000000" fill-opacity="1"><g transform="translate(520.04138, 108.626555)"><g><path d="M 51.945312 -10.039062 C 51.636719 -10.453125 51.324219 -10.660156 51.015625 -10.660156 C 50.703125 -10.660156 50.394531 -10.453125 49.980469 -10.140625 C 45.117188 -6.414062 38.492188 -4.554688 33.007812 -4.554688 C 21.214844 -4.554688 11.691406 -14.074219 11.691406 -25.457031 L 11.691406 -27.109375 C 11.691406 -37.871094 19.867188 -47.496094 30.835938 -48.324219 L 30.835938 -53.808594 C 16.347656 -53.1875 5.070312 -40.667969 5.070312 -26.285156 C 5.070312 -11.175781 17.074219 1.136719 32.699219 1.136719 C 40.253906 1.136719 48.738281 -1.34375 53.496094 -6.105469 C 54.222656 -6.726562 54.222656 -7.347656 53.601562 -8.175781 Z M 57.742188 -25.351562 C 57.742188 -40.460938 48.425781 -53.394531 32.90625 -53.808594 L 32.90625 -48.324219 C 44.183594 -47.703125 50.910156 -37.769531 51.117188 -28.558594 L 13.96875 -28.558594 C 13.554688 -27.316406 13.554688 -25.144531 13.96875 -23.902344 L 56.394531 -23.902344 C 57.535156 -23.902344 57.742188 -24.316406 57.742188 -25.351562 Z M 57.742188 -25.351562 "/></g></g></g><g fill="#000000" fill-opacity="1"><g transform="translate(582.329262, 108.626555)"><g><path d="M 51.945312 -10.039062 C 51.636719 -10.453125 51.324219 -10.660156 51.015625 -10.660156 C 50.703125 -10.660156 50.394531 -10.453125 49.980469 -10.140625 C 45.117188 -6.414062 38.492188 -4.554688 33.007812 -4.554688 C 21.214844 -4.554688 11.691406 -14.074219 11.691406 -25.457031 L 11.691406 -27.109375 C 11.691406 -37.871094 19.867188 -47.496094 30.835938 -48.324219 L 30.835938 -53.808594 C 16.347656 -53.1875 5.070312 -40.667969 5.070312 -26.285156 C 5.070312 -11.175781 17.074219 1.136719 32.699219 1.136719 C 40.253906 1.136719 48.738281 -1.34375 53.496094 -6.105469 C 54.222656 -6.726562 54.222656 -7.347656 53.601562 -8.175781 Z M 57.742188 -25.351562 C 57.742188 -40.460938 48.425781 -53.394531 32.90625 -53.808594 L 32.90625 -48.324219 C 44.183594 -47.703125 50.910156 -37.769531 51.117188 -28.558594 L 13.96875 -28.558594 C 13.554688 -27.316406 13.554688 -25.144531 13.96875 -23.902344 L 56.394531 -23.902344 C 57.535156 -23.902344 57.742188 -24.316406 57.742188 -25.351562 Z M 57.742188 -25.351562 "/></g></g></g><g fill="#000000" fill-opacity="1"><g transform="translate(644.617144, 108.626555)"><g><path d="M 29.078125 1.136719 C 37.046875 1.136719 43.355469 -2.691406 46.875 -7.65625 L 46.875 -16.347656 C 42.839844 -7.65625 36.011719 -4.65625 30.214844 -4.65625 C 18.625 -4.65625 11.589844 -14.28125 11.589844 -26.386719 C 11.589844 -37.5625 18.625 -47.910156 30.214844 -47.910156 C 37.253906 -47.910156 43.253906 -43.976562 46.875 -36.113281 L 46.875 -44.597656 C 43.355469 -49.773438 37.046875 -53.808594 29.078125 -53.808594 C 14.382812 -53.808594 5.175781 -41.496094 5.175781 -26.386719 C 5.175781 -11.277344 14.382812 1.136719 29.078125 1.136719 Z M 55.257812 -74.917969 C 55.257812 -76.054688 54.84375 -76.367188 53.910156 -76.367188 L 50.1875 -76.367188 C 49.152344 -76.367188 48.839844 -75.953125 48.839844 -74.917969 L 48.839844 -4.554688 L 49.773438 -1.242188 C 50.289062 -0.308594 51.117188 0 51.84375 0 L 53.910156 0 C 54.84375 0 55.257812 -0.308594 55.257812 -1.449219 Z M 55.257812 -74.917969 "/></g></g></g></svg>