<?xml version="1.0" standalone="no"?>
<!DOCTYPE svg PUBLIC "-//W3C//DTD SVG 20010904//EN"
 "http://www.w3.org/TR/2001/REC-SVG-20010904/DTD/svg10.dtd">
<svg version="1.0" xmlns="http://www.w3.org/2000/svg"
 width="175.000000pt" height="75.000000pt" viewBox="0 0 175.000000 75.000000"
 preserveAspectRatio="xMidYMid meet">

<g transform="translate(0.000000,75.000000) scale(0.100000,-0.100000)"
fill="#000000" stroke="none">
<path d="M344 534 c-21 -15 -52 -37 -67 -50 -16 -13 -34 -24 -41 -24 -7 0 -28
-16 -47 -36 -33 -35 -33 -36 -9 -32 19 2 25 -2 25 -17 0 -11 -3 -25 -7 -31
-12 -17 20 -40 34 -26 20 20 48 14 48 -10 1 -22 1 -22 25 5 14 15 27 40 30 55
4 15 19 52 35 82 31 61 41 101 24 107 -6 2 -28 -8 -50 -23z m-20 -60 c20 -8
21 -38 2 -53 -19 -16 -46 -3 -46 23 0 34 12 42 44 30z"/>
<path d="M300 445 c0 -8 5 -15 10 -15 6 0 10 7 10 15 0 8 -4 15 -10 15 -5 0
-10 -7 -10 -15z"/>
<path d="M1360 445 c0 -22 -4 -24 -23 -20 -32 8 -49 -15 -45 -62 3 -37 4 -38
41 -39 l37 -1 0 73 c0 41 -2 74 -5 74 -3 0 -5 -11 -5 -25z m0 -76 c0 -32 -12
-43 -40 -34 -26 8 -28 60 -3 74 24 13 43 -4 43 -40z"/>
<path d="M596 394 c-26 -64 -29 -104 -5 -50 17 36 66 37 75 1 3 -14 11 -25 16
-25 6 0 7 8 3 18 -4 9 -16 41 -27 70 -12 28 -24 52 -28 52 -4 0 -20 -30 -34
-66z m49 9 c5 -19 2 -23 -14 -23 -23 0 -24 3 -15 38 7 26 18 20 29 -15z"/>
<path d="M957 453 c-17 -16 -4 -45 28 -65 45 -26 43 -53 -3 -53 -17 0 -32 -3
-32 -7 0 -5 16 -8 35 -8 60 0 67 58 8 81 -33 12 -26 42 12 50 30 7 30 7 -6 8
-20 0 -39 -2 -42 -6z"/>
<path d="M733 423 c-22 -4 -23 -9 -21 -81 0 -42 3 -62 5 -44 4 28 7 31 29 26
14 -4 31 -1 39 6 18 15 20 71 3 88 -12 12 -16 13 -55 5z m53 -39 c11 -45 -35
-73 -56 -35 -14 27 -13 37 5 55 20 20 44 10 51 -20z"/>
<path d="M853 423 c-21 -4 -23 -10 -23 -79 0 -43 4 -74 10 -74 6 0 10 14 10
31 0 19 4 28 11 24 5 -4 21 -4 35 -1 20 5 24 12 24 44 0 38 -14 63 -34 61 -6
-1 -21 -4 -33 -6z m57 -47 c0 -28 -24 -51 -45 -42 -18 7 -21 72 -2 79 21 8 47
-13 47 -37z"/>
<path d="M1076 414 c-34 -33 -12 -94 34 -94 17 0 30 4 30 9 0 4 -11 6 -24 4
-17 -4 -27 1 -35 16 -11 20 -9 21 29 21 28 0 40 4 40 14 0 18 -27 46 -45 46
-7 0 -21 -7 -29 -16z m54 -20 c0 -8 -10 -14 -25 -14 -26 0 -35 25 -12 33 18 6
37 -3 37 -19z"/>
<path d="M1186 414 c-36 -35 -8 -95 42 -93 27 1 27 1 -3 8 -17 3 -31 14 -33
24 -3 14 4 17 32 17 29 0 36 4 36 20 0 18 -26 40 -49 40 -5 0 -17 -7 -25 -16z
m54 -19 c0 -9 -9 -15 -25 -15 -24 0 -32 10 -18 23 12 13 43 7 43 -8z"/>
<path d="M130 265 c6 -8 8 -20 4 -26 -4 -8 -3 -9 4 -5 7 4 17 16 22 27 9 17 7
19 -16 19 -22 0 -24 -2 -14 -15z"/>
</g>
</svg>
