<svg width="58" height="58" viewBox="0 0 58 58" fill="none" xmlns="http://www.w3.org/2000/svg">
<g filter="url(#filter0_dd_41_23)">
<rect x="5" y="1" width="48" height="48" rx="12" fill="#D8D8D8"/>
<rect x="5" y="1" width="48" height="48" rx="12" fill="url(#paint0_linear_41_23)"/>
<rect x="5" y="1" width="48" height="48" rx="12" fill="url(#paint1_linear_41_23)"/>
</g>
<path opacity="0.598586" d="M43.4352 12H32.6961C32.3835 12 32.1309 12.2527 32.1309 12.5652V23.3043C32.1309 23.5186 32.2518 23.7141 32.4434 23.8102C32.5231 23.8498 32.6102 23.8696 32.6961 23.8696C32.8159 23.8696 32.9357 23.8317 33.0352 23.7565L37.406 20.4783H43.4352C43.7478 20.4783 44.0004 20.2256 44.0004 19.913V12.5652C44.0004 12.2527 43.7478 12 43.4352 12Z" fill="white"/>
<path d="M30.9339 30.573C29.7345 30.0937 27.7918 29.5217 25.3478 29.5217C22.9038 29.5217 20.9612 30.0937 19.7612 30.573C18.6918 31.002 18 32.0302 18 33.1923V35.1739C18 35.4865 18.2527 35.7391 18.5652 35.7391H32.1304C32.443 35.7391 32.6957 35.4865 32.6957 35.1739V33.1923C32.6957 32.0302 32.0038 31.002 30.9339 30.573Z" fill="white"/>
<path d="M25.3479 27.8261C27.853 27.8261 29.8696 24.7338 29.8696 22.174C29.8696 19.6808 27.8411 17.6522 25.3479 17.6522C22.8547 17.6522 20.8262 19.6808 20.8262 22.174C20.8262 24.7338 22.8429 27.8261 25.3479 27.8261Z" fill="white"/>
<defs>
<filter id="filter0_dd_41_23" x="0" y="0" width="58" height="58" filterUnits="userSpaceOnUse" color-interpolation-filters="sRGB">
<feFlood flood-opacity="0" result="BackgroundImageFix"/>
<feColorMatrix in="SourceAlpha" type="matrix" values="0 0 0 0 0 0 0 0 0 0 0 0 0 0 0 0 0 0 127 0" result="hardAlpha"/>
<feMorphology radius="1" operator="erode" in="SourceAlpha" result="effect1_dropShadow_41_23"/>
<feOffset dy="2"/>
<feGaussianBlur stdDeviation="2"/>
<feColorMatrix type="matrix" values="0 0 0 0 0.0784314 0 0 0 0 0.0784314 0 0 0 0 0.0784314 0 0 0 0.07 0"/>
<feBlend mode="normal" in2="BackgroundImageFix" result="effect1_dropShadow_41_23"/>
<feColorMatrix in="SourceAlpha" type="matrix" values="0 0 0 0 0 0 0 0 0 0 0 0 0 0 0 0 0 0 127 0" result="hardAlpha"/>
<feMorphology radius="1" operator="erode" in="SourceAlpha" result="effect2_dropShadow_41_23"/>
<feOffset dy="4"/>
<feGaussianBlur stdDeviation="3"/>
<feColorMatrix type="matrix" values="0 0 0 0 0.0784314 0 0 0 0 0.0784314 0 0 0 0 0.0784314 0 0 0 0.12 0"/>
<feBlend mode="normal" in2="effect1_dropShadow_41_23" result="effect2_dropShadow_41_23"/>
<feBlend mode="normal" in="SourceGraphic" in2="effect2_dropShadow_41_23" result="shape"/>
</filter>
<linearGradient id="paint0_linear_41_23" x1="-6.50558" y1="59.6114" x2="62.7172" y2="59.6114" gradientUnits="userSpaceOnUse">
<stop stop-color="#FF6690"/>
<stop offset="1" stop-color="#D70B0C"/>
<stop offset="1" stop-color="#D60808"/>
</linearGradient>
<linearGradient id="paint1_linear_41_23" x1="5" y1="49" x2="53" y2="49" gradientUnits="userSpaceOnUse">
<stop stop-color="#3A416F"/>
<stop offset="1" stop-color="#141727"/>
</linearGradient>
</defs>
</svg>
